<?xml version="1.0" encoding="utf-8"?>
<!-- Generator: Adobe Illustrator 18.1.1, SVG Export Plug-In . SVG Version: 6.00 Build 0)  -->
<!DOCTYPE svg PUBLIC "-//W3C//DTD SVG 1.1//EN" "http://www.w3.org/Graphics/SVG/1.1/DTD/svg11.dtd">
<svg version="1.1" id="desk02" xmlns="http://www.w3.org/2000/svg" xmlns:xlink="http://www.w3.org/1999/xlink" x="0px" y="0px"
	 width="500px" height="250px" viewBox="125 0 500 250" enable-background="new 125 0 500 250" xml:space="preserve">
<rect id="background" x="125" fill="#E1EBED" width="500" height="250"/>
<g id="mouse">
	<path fill="#BCBEC0" d="M456.9,215.9h20.6c0.6,0,1-0.4,0.8-1c-0.4-1.6-1.7-4.6-6.3-4.8c0,0-12.2-0.9-15.7,4.9
		C456,215.5,456.3,215.9,456.9,215.9z"/>
	<path fill="#FFFFFF" d="M456.4,215.7c3.8-5.4,15.4-4.5,15.4-4.5c4.3,0.1,5.7,2.8,6.2,4.4c0.2-0.2,0.3-0.4,0.2-0.7
		c-0.4-1.6-1.7-4.6-6.3-4.8c0,0-12.2-0.9-15.7,4.9C456.1,215.3,456.2,215.5,456.4,215.7z"/>
</g>
<!-- <rect id="windowmask" x="178" y="50.9" fill="#FFFFFF" width="101.3" height="60.4"/> -->

<g id="window" >
	<g id="windowall">
		<g id="blinds">
			<polygon fill="#AFDEEB" points="273.4,60.1 273.4,60.1 186.1,60.1 186.1,60.1 186.1,57.4 186.1,57.4 273.4,57.4 273.4,57.4 			
				"/>
			<polygon fill="#AFDEEB" points="273.4,64 273.4,64 186.1,64 186.1,64 186.1,61.2 186.1,61.2 273.4,61.2 273.4,61.2 			"/>
			<polygon fill="#AFDEEB" points="273.4,67.8 273.4,67.8 186.1,67.8 186.1,67.8 186.1,65 186.1,65 273.4,65 273.4,65 			"/>
			<polygon fill="#AFDEEB" points="273.4,71.6 273.4,71.6 186.1,71.6 186.1,71.6 186.1,68.9 186.1,68.9 273.4,68.9 273.4,68.9 			
				"/>
			<polygon fill="#AFDEEB" points="273.4,75.5 273.4,75.5 186.1,75.5 186.1,75.5 186.1,72.7 186.1,72.7 273.4,72.7 273.4,72.7 			
				"/>
			<polygon fill="#AFDEEB" points="273.4,79.3 273.4,79.3 186.1,79.3 186.1,79.3 186.1,76.5 186.1,76.5 273.4,76.5 273.4,76.5 			
				"/>
			<polygon fill="#AFDEEB" points="273.4,83.1 273.4,83.1 186.1,83.1 186.1,83.1 186.1,80.4 186.1,80.4 273.4,80.4 273.4,80.4 			
				"/>
			<polygon fill="#AFDEEB" points="273.4,87 273.4,87 186.1,87 186.1,87 186.1,84.2 186.1,84.2 273.4,84.2 273.4,84.2 			"/>
			<polygon fill="#AFDEEB" points="273.4,90.8 273.4,90.8 186.1,90.8 186.1,90.8 186.1,88 186.1,88 273.4,88 273.4,88 			"/>
			<polygon fill="#AFDEEB" points="273.4,94.6 273.4,94.6 186.1,94.6 186.1,94.6 186.1,91.8 186.1,91.8 273.4,91.8 273.4,91.8 			
				"/>
			<polygon fill="#AFDEEB" points="273.4,98.4 273.4,98.4 186.1,98.4 186.1,98.4 186.1,95.7 186.1,95.7 273.4,95.7 273.4,95.7 			
				"/>
			<polygon fill="#AFDEEB" points="273.4,102.3 273.4,102.3 186.1,102.3 186.1,102.3 186.1,99.5 186.1,99.5 273.4,99.5 273.4,99.5 
							"/>
			<polygon fill="#AFDEEB" points="273.4,106.1 273.4,106.1 186.1,106.1 186.1,106.1 186.1,103.3 186.1,103.3 273.4,103.3 
				273.4,103.3 			"/>
			<polygon fill="#AFDEEB" points="273.4,109.9 273.4,109.9 186.1,109.9 186.1,109.9 186.1,107.2 186.1,107.2 273.4,107.2 
				273.4,107.2 			"/>
			<polygon fill="#AFDEEB" points="273.4,113.8 273.4,113.8 186.1,113.8 186.1,113.8 186.1,111 186.1,111 273.4,111 273.4,111 			
				"/>
			<polygon fill="#AFDEEB" points="273.4,117.6 273.4,117.6 186.1,117.6 186.1,117.6 186.1,114.8 186.1,114.8 273.4,114.8 
				273.4,114.8 			"/>
			<polygon fill="#AFDEEB" points="273.4,121.4 273.4,121.4 186.1,121.4 186.1,121.4 186.1,118.7 186.1,118.7 273.4,118.7 
				273.4,118.7 			"/>
			<polygon fill="#AFDEEB" points="273.4,125.3 273.4,125.3 186.1,125.3 186.1,125.3 186.1,122.5 186.1,122.5 273.4,122.5 
				273.4,122.5 			"/>
			<polygon fill="#AFDEEB" points="273.4,129.1 273.4,129.1 186.1,129.1 186.1,129.1 186.1,126.3 186.1,126.3 273.4,126.3 
				273.4,126.3 			"/>
			<polygon fill="#AFDEEB" points="273.4,132.9 273.4,132.9 186.1,132.9 186.1,132.9 186.1,130.2 186.1,130.2 273.4,130.2 
				273.4,130.2 			"/>
			<polygon fill="#AFDEEB" points="273.4,136.7 273.4,136.7 186.1,136.7 186.1,136.7 186.1,134 186.1,134 273.4,134 273.4,134 			
				"/>
			<polygon fill="#AFDEEB" points="273.4,140.6 273.4,140.6 186.1,140.6 186.1,140.6 186.1,137.8 186.1,137.8 273.4,137.8 
				273.4,137.8 			"/>
			<polygon fill="#AFDEEB" points="273.4,144.4 273.4,144.4 186.1,144.4 186.1,144.4 186.1,141.6 186.1,141.6 273.4,141.6 
				273.4,141.6 			"/>
			<polygon fill="#AFDEEB" points="273.4,148.2 273.4,148.2 186.1,148.2 186.1,148.2 186.1,145.5 186.1,145.5 273.4,145.5 
				273.4,145.5 			"/>
			<polygon fill="#AFDEEB" points="273.4,152.1 273.4,152.1 186.1,152.1 186.1,152.1 186.1,149.3 186.1,149.3 273.4,149.3 
				273.4,149.3 			"/>
			<polygon fill="#AFDEEB" points="273.4,155.9 273.4,155.9 186.1,155.9 186.1,155.9 186.1,153.1 186.1,153.1 273.4,153.1 
				273.4,153.1 			"/>
			<polygon fill="#AFDEEB" points="273.4,159.7 273.4,159.7 186.1,159.7 186.1,159.7 186.1,157 186.1,157 273.4,157 273.4,157 			
				"/>
			<polygon fill="#AFDEEB" points="273.4,163.6 273.4,163.6 186.1,163.6 186.1,163.6 186.1,160.8 186.1,160.8 273.4,160.8 
				273.4,160.8 			"/>
				<g>
			<rect x="257.6" y="57.4" fill="#FFFFFF" width="0.6" height="106"/>
		</g>
		<g>
			<rect x="202.1" y="57.5" fill="#FFFFFF" width="0.6" height="106"/>
		</g>
		</g>
		
		<g id="windowstring2">
			<g>
				<rect x="265.5" y="57.3" fill="#414042" width="0.6" height="85.8"/>
			</g>
			<path fill="#414042" d="M267.3,148.3c0,0.8-0.6,1.4-1.4,1.4l0,0c-0.8,0-1.4-0.6-1.4-1.4v-7.4c0-0.8,0.6-1.4,1.4-1.4l0,0
				c0.8,0,1.4,0.6,1.4,1.4V148.3z"/>
		</g>
		<g id="windowstring1">
			<g>
				<rect x="195.3" y="57.3" fill="#414042" width="0.6" height="85.8"/>
			</g>
			<path fill="#414042" d="M197.1,148.3c0,0.8-0.6,1.4-1.4,1.4l0,0c-0.8,0-1.4-0.6-1.4-1.4v-7.4c0-0.8,0.6-1.4,1.4-1.4l0,0
				c0.8,0,1.4,0.6,1.4,1.4V148.3z"/>
		</g>
		<g id="windowframe">
			<polygon fill="#231F20" points="187.3,56.9 272,56.9 272,57.1 275.2,51.6 277.3,51.5 182,51.5 182,51.6 187.3,57 		"/>
			<polygon fill="#231F20" points="187.3,57 182,51.6 183,168.4 187.3,165.1 		"/>
			<polygon fill="#353C4F" points="186.8,56.3 271.5,56.3 271.5,56.5 276.8,51.1 276.8,50.9 181.5,50.9 181.5,51 186.8,56.4 		"/>
			<polygon fill="#5D6372" points="271.5,56.5 271.5,164.4 276.8,169.9 276.8,51.1 		"/>
			<polygon fill="#353C4F" points="271.5,164.7 186.8,164.7 186.8,164.5 181.5,169.9 181.5,170.1 276.8,170.1 276.8,169.9 
				271.5,164.4 		"/>
			<polygon fill="#5D6372" points="186.8,56.4 181.5,51 181.5,169.9 186.8,164.5 		"/>
		</g>
	</g>
</g>
<g id="pencilholder">
	<g id="pen01">
		
			<rect x="269.7" y="206.6" transform="matrix(-0.9811 0.1936 -0.1936 -0.9811 578.2211 370.3987)" fill="#F1F2F2" width="2.6" height="13.7"/>
		
			<rect x="269.8" y="206.8" transform="matrix(-0.9813 0.1924 -0.1924 -0.9813 576.5552 371.3016)" fill="#D1D3D4" width="0.9" height="13.7"/>
		
			<rect x="271.5" y="206.5" transform="matrix(0.9812 -0.1932 0.1932 0.9812 -36.0874 56.5447)" fill="#E6E7E8" width="0.8" height="13.7"/>
		<path fill="#F48D6B" d="M267.2,196.5c0,0-0.4,6.7,1,10.1l-1.1,0.2l0.1,0.4l2.4-0.5l-2-10.4L267.2,196.5z"/>
		<path fill="#B76A50" d="M272.1,205.9l-1.1,0.2c0.1-3.7-2.8-9.8-2.8-9.8l-0.4,0.1l2,10.4l2.4-0.5L272.1,205.9z"/>
	</g>
	<g id="pen03">
		<rect x="275.8" y="207.8" fill="#F1F2F2" width="2.6" height="13.7"/>
		<rect x="275.8" y="207.8" fill="#D1D3D4" width="0.9" height="13.7"/>
		<rect x="277.6" y="207.8" fill="#E6E7E8" width="0.8" height="13.7"/>
		<path fill="#66CEF5" d="M276.7,197.2c0,0-1.7,6.5-0.9,10.2h-1.1v0.4h2.5v-10.6L276.7,197.2L276.7,197.2z"/>
		<path fill="#00AEEF" d="M279.6,207.4h-1.1c0.8-3.6-0.9-10.2-0.9-10.2h-0.4v10.6h2.5v-0.4H279.6z"/>
	</g>
	<g id="pen02">
		
			<rect x="271.7" y="204.8" transform="matrix(-0.992 -0.1263 0.1263 -0.992 517.1063 456.0909)" fill="#F1F2F2" width="2.6" height="13.7"/>
		
			<rect x="271.7" y="204.7" transform="matrix(-0.9922 -0.1245 0.1245 -0.9922 515.8494 455.3294)" fill="#D1D3D4" width="0.9" height="13.7"/>
		
			<rect x="273.5" y="205" transform="matrix(0.992 0.1265 -0.1265 0.992 28.9941 -32.9398)" fill="#E6E7E8" width="0.8" height="13.7"/>
		<path fill="#80D3AB" d="M274.7,194.4c0,0-2.5,6.3-2.2,10l-1.1-0.1l-0.1,0.4l2.5,0.3l1.3-10.5L274.7,194.4z"/>
		<path fill="#2BB673" d="M276.3,204.8l-1.1-0.1c1.3-3.5,0.4-10.2,0.4-10.2l-0.4-0.1l-1.3,10.5l2.5,0.3L276.3,204.8z"/>
	</g>
	<g id="pen04">
		
			<rect x="277.5" y="208.2" transform="matrix(-0.9721 -0.2345 0.2345 -0.9721 499.4127 489.4971)" fill="#F1F2F2" width="2.6" height="13.7"/>
		
			<rect x="277.5" y="208" transform="matrix(-0.9727 -0.232 0.232 -0.9727 498.5019 488.3165)" fill="#D1D3D4" width="0.9" height="13.7"/>
		
			<rect x="279.2" y="208.5" transform="matrix(0.9719 0.2354 -0.2354 0.9719 58.5392 -59.7667)" fill="#E6E7E8" width="0.8" height="13.7"/>
		<path fill="#F1C40F" d="M282.4,198.1c0,0-3.2,6-3.3,9.7l-1.1-0.3l-0.1,0.4l2.4,0.6l2.5-10.3L282.4,198.1z"/>
		<path fill="#F9E79F" d="M282.9,208.6l-1.1-0.3c1.6-3.3,1.5-10.1,1.5-10.1l-0.4-0.1l-2.5,10.3l2.4,0.6L282.9,208.6z"/>
	</g>
	<g id="cup">
		<path fill="#58595B" d="M266.6,211.3v21.4c0,0.7,0.6,1.3,1.3,1.3h9.2v-22.7H266.6z"/>
		<path fill="#6D6E71" d="M277,211.3V234h4.6c0.7,0,1.3-0.6,1.3-1.3v-21.4H277z"/>
	</g>
</g>
<g id="desk">
	<rect id="deskleft" x="224.1" y="233.7" fill="#C49A6C" width="24.4" height="16.3"/>
	<rect id="deskright" x="453.8" y="233.7" fill="#C49A6C" width="97.6" height="16.3"/>
	<g id="desktop1">
		<rect id="deskshadow" x="224.1" y="227.7" opacity="0.27" enable-background="new    " width="327.3" height="5"/>
		<rect x="214" y="215.9" fill="#D0AE89" width="346.3" height="18"/>
		
	</g>
</g>
<g id="laptop">
	<g>
		<path fill="#BCBEC0" d="M452.9,211.2h-4.5c0-0.4,0-2.4,0-4.7v-56.7c0-2.7-2-4.8-4.5-4.8H329.5c-2.5,0-4.5,2.1-4.5,4.8v56.7
			c0,2.4,0,4.3,0,4.7h-4.5c-0.4,0-0.8,0.3-0.8,0.8l1.3,3.4c0,0.4,0.3,0.8,0.8,0.8h129.8c0.4,0,0.8-0.3,0.8-0.8l1.3-3.4
			C453.6,211.5,453.3,211.2,452.9,211.2z"/>
		<g>
			<path fill="#353C4F" d="M449.2,205.9c0,2.6,0,4.7,0,4.7H325.8c0,0,0-2.1,0-4.7v-56.2c0-2.6,2-4.7,4.5-4.7h114.4
				c2.5,0,4.5,2.1,4.5,4.7V205.9z"/>
			<rect x="331.3" y="149.5" fill="#85DEE3" width="112.5" height="56.6"/>
			<path fill="#FFFFFF" d="M454.5,211.3c0-0.4-0.3-0.8-0.8-0.8H321.4c-0.4,0-0.8,0.3-0.8,0.8v1.7h133.8L454.5,211.3z"/>
			<path fill="#E6E7E8" d="M320.6,213l1.3,1.7c0.4,0.5,0.7,0.8,1.3,0.8H452c0.4,0,0.8-0.2,1.1-0.8l1.3-1.7H320.6z"/>
			<path fill="#BCBEC0" d="M370.3,210.6v0.9c0,0.2,0.4,0.4,0.8,0.4h32.8c0.5,0,0.8-0.2,0.8-0.4v-0.9H370.3z"/>
		</g>
	</g>
	<rect x="331.3" y="155.3" fill="#FFFFFF" width="112.6" height="50.6"/>
	<rect x="331.3" y="149.2" fill="#414042" width="112.6" height="6.1"/>
	<g>
		<path fill="#FFFFFF" d="M428.5,152.7c0,0.2-0.2,0.4-0.4,0.4h-1.5c-0.2,0-0.4-0.2-0.4-0.4v-1.5c0-0.2,0.2-0.4,0.4-0.4h1.5
			c0.2,0,0.4,0.2,0.4,0.4V152.7z"/>
		<path fill="#FFFFFF" d="M433.6,152.7c0,0.2-0.2,0.4-0.4,0.4h-1.5c-0.2,0-0.4-0.2-0.4-0.4v-1.5c0-0.2,0.2-0.4,0.4-0.4h1.5
			c0.2,0,0.4,0.2,0.4,0.4V152.7z"/>
		<path fill="#FFFFFF" d="M438.8,152.7c0,0.2-0.2,0.4-0.4,0.4h-1.5c-0.2,0-0.4-0.2-0.4-0.4v-1.5c0-0.2,0.2-0.4,0.4-0.4h1.5
			c0.2,0,0.4,0.2,0.4,0.4V152.7z"/>
	</g>
	<rect x="333.1" y="156.5" fill="#4EC3E3" width="5.7" height="2.5"/>
	<rect x="340.3" y="156.5" fill="#FFFFFF" width="97.3" height="2.5"/>
	<path fill="#D35400" d="M357.8,154h-15v-2.2l13.5-0.1c1.1,0,1.4,0.5,1.4,1L357.8,154z"/>
	<path fill="#FFFFFF" d="M348.9,154h-15v-2.2l13.5-0.1c1.1,0,1.4,0.5,1.4,1L348.9,154z"/>
	<rect x="336" y="159.3" fill="#66A1BD" width="36.7" height="46.6"/>
	<circle fill="#FFFFFF" cx="354.2" cy="171.9" r="8.7"/>
	
					<path fill="#D1D3D4" d="M351.7,171.5c0,0,0,0,0,0.1s0,0.2,0,0.3s0,0.1,0,0.2c0,0.1,0,0.2,0,0.3c0,0.2,0.1,0.4,0.1,0.6
						c0,0.2,0.1,0.5,0.2,0.7c0.1,0.2,0.2,0.5,0.4,0.8c0.1,0.1,0.2,0.2,0.2,0.4c0.1,0.1,0.2,0.2,0.3,0.3c0.2,0.2,0.5,0.4,0.8,0.5
						c0.3,0.1,0.6,0.1,0.9,0c0.3-0.1,0.5-0.2,0.8-0.4c0.2-0.2,0.4-0.4,0.6-0.6c0.2-0.2,0.3-0.5,0.4-0.7c0-0.1,0.1-0.2,0.1-0.3
						s0.1-0.2,0.1-0.3s0.1-0.2,0.1-0.3s0-0.2,0-0.2c0-0.1,0-0.2,0.1-0.3c0-0.1,0-0.1,0-0.1s0,0,0,0.1s0,0.2,0,0.3s0,0.1,0,0.2
						c0,0.1,0,0.2-0.1,0.3c0,0.1-0.1,0.2-0.1,0.3s-0.1,0.2-0.1,0.3c-0.1,0.2-0.2,0.5-0.4,0.7c-0.1,0.1-0.2,0.2-0.2,0.3
						c-0.1,0.1-0.2,0.2-0.3,0.3c-0.2,0.2-0.5,0.4-0.8,0.5c-0.3,0.1-0.7,0.1-1,0c-0.3-0.1-0.6-0.3-0.8-0.5c-0.1-0.1-0.2-0.2-0.3-0.4
						c-0.1-0.1-0.2-0.3-0.2-0.4c-0.2-0.3-0.3-0.5-0.4-0.8s-0.2-0.5-0.2-0.8c0-0.2-0.1-0.5-0.1-0.7c0-0.1,0-0.2,0-0.3s0-0.2,0-0.2
						C351.8,171.6,351.8,171.5,351.7,171.5C351.6,171.6,351.7,171.5,351.7,171.5z"/>
					<path fill="#D1D3D4" d="M356.7,172.6c0,0,0.1-2.8-2.2-2.8c-0.3,0-0.1-0.2-0.1-0.2s-0.3,0.1-0.4,0.1c-1,0-2.1,0-2.3,1.8l1-0.6
						c0,0,0.5,0.3,1.1,0.7c0.1,0.1,0.5,0.5,0.5,0.5s-0.1-0.3,0.7,0.1C355.6,172.7,356.3,172.8,356.7,172.6z"/>
				
				<path fill="#D1D3D4" d="M358.9,180.3c0.6-0.7-0.6-3.4-0.6-3.4c0-0.8-0.7-1.5-1.5-1.5h-1.1c0,0.1-0.1,0.1-0.1,0.2
					c-0.1,0.1-0.2,0.2-0.3,0.3c-0.2,0.2-0.5,0.4-0.8,0.5s-0.7,0.1-1,0s-0.6-0.3-0.8-0.5c-0.1-0.1-0.2-0.2-0.3-0.4l0,0h-0.9
					c-0.8,0-1.5,0.7-1.5,1.5c0,0-1.1,2.7-0.5,3.4C351.2,182.3,357.4,182.1,358.9,180.3z"/>
			
	<rect x="346.3" y="182.2" fill="#58595B" width="16.6" height="2.8"/>
	<rect x="346.3" y="188.2" fill="#939598" width="16.6" height="0.7"/>
	<rect x="346.3" y="190.2" fill="#939598" width="16.6" height="0.6"/>
	<rect x="346.3" y="192.2" fill="#939598" width="13.5" height="0.7"/>
	<rect x="346.3" y="194.3" fill="#939598" width="7.3" height="0.6"/>
	<g>
		<path fill="#58595B" d="M363,203.2h-16.8v-3.9H363V203.2z M346.4,203h16.4v-3.4h-16.4V203z"/>
	</g>
	<rect x="349.9" y="200.8" fill="#FFFFFF" width="9.8" height="0.9"/>
	<rect x="374.9" y="163.7" fill="#E7B4A5" width="63.9" height="31"/>
	<g>
		<polygon fill="#FFFFFF" points="432.9,179.1 429.9,182.1 429.6,181.8 432.3,179.1 429.6,176.4 429.9,176.1 		"/>
	</g>
	<g>
		<polygon fill="#FFFFFF" points="380.8,179.1 383.8,182.1 384.1,181.8 381.4,179.1 384.1,176.4 383.8,176.1 		"/>
	</g>
	<polygon fill="#58595B" points="399.6,194.6 410.9,175.9 422.2,194.6 	"/>
	<polygon fill="#414042" points="405.6,184.7 395.9,175.5 384.1,194.6 388.9,194.6 399.6,194.6 	"/>
	<path fill="#414042" d="M408.3,169.3c0,2.1-1.7,3.9-3.9,3.9c-2.1,0-3.9-1.7-3.9-3.9c0-2.1,1.7-3.9,3.9-3.9
		C406.6,165.4,408.3,167.2,408.3,169.3z"/>
	<rect x="390.5" y="197" fill="#58595B" width="33.6" height="3.4"/>
	<rect x="382.4" y="203.4" fill="#939598" width="50" height="0.7"/>
	<path opacity="0.3" fill="#FFFFFF" enable-background="new    " d="M413.9,145.3h-83.2c-2.5,0-4.5,2.1-4.5,4.7v56.2
		c0,2.1,0,3.8,0,4.5L413.9,145.3z"/>
</g>
<g id="speaker2">
	<path fill="#353C4F" d="M505.7,213.9c0,1.3-1.1,2.4-2.4,2.4h-16.9c-1.3,0-2.4-1.1-2.4-2.4v-32c0-1.3,1.1-2.4,2.4-2.4h16.9
		c1.3,0,2.4,1.1,2.4,2.4V213.9z"/>
	<path fill="#A7A9AC" d="M505,180.2c-0.4-0.4-1-0.7-1.7-0.7h-16.9c-1.3,0-2.4,1.1-2.4,2.4v18.3L505,180.2z"/>
	<g id="bottomouter2">
		<path fill="#FFFFFF" d="M502.5,205.1c0,4.3-3.5,7.7-7.7,7.7c-4.3,0-7.7-3.5-7.7-7.7c0-4.3,3.5-7.7,7.7-7.7
			C499.1,197.4,502.5,200.9,502.5,205.1z"/>
		<path fill="#5D6372" d="M501.8,205.1c0,3.9-3.1,7-7,7s-7-3.1-7-7s3.1-7,7-7C498.7,198.2,501.8,201.3,501.8,205.1z"/>
	</g>
	<g id="bottominner2">
		<path fill="#F1F2F2" d="M498.8,205.1c0,2.2-1.8,4-4,4s-4-1.8-4-4s1.8-4,4-4C497,201.2,498.8,202.9,498.8,205.1z"/>
		<circle fill="#353C4F" cx="494.8" cy="205.1" r="1.4"/>
	</g>
	<g id="topouter2">
		<circle fill="#FFFFFF" cx="494.8" cy="188.3" r="4.1"/>
		<circle fill="#5D6372" cx="494.8" cy="188.3" r="3.7"/>
	</g>
	<g id="topinner2">
		<circle fill="#F1F2F2" cx="494.8" cy="188.3" r="2.1"/>
		<circle fill="#353C4F" cx="494.8" cy="188.3" r="0.8"/>
	</g>
</g>
<g id="speaker1">
	<g id="box">
		<path fill="#353C4F" d="M312.4,213.4c0,1.3-1.1,2.4-2.4,2.4h-17c-1.3,0-2.4-1.1-2.4-2.4v-32c0-1.3,1.1-2.4,2.4-2.4h17
			c1.3,0,2.4,1.1,2.4,2.4V213.4z"/>
		<path fill="#A7A9AC" d="M311.7,179.7c-0.4-0.4-1-0.7-1.7-0.7h-17c-1.3,0-2.4,1.1-2.4,2.4v18.3L311.7,179.7z"/>
	</g>
	<g id="bottomouter">
		<circle fill="#FFFFFF" cx="301.5" cy="204.6" r="7.7"/>
		<circle fill="#5D6372" cx="301.5" cy="204.6" r="7"/>
	</g>
	<g id="bottominner">
		<path fill="#F1F2F2" d="M305.5,204.6c0,2.2-1.8,4-4,4s-4-1.8-4-4s1.8-4,4-4S305.5,202.4,305.5,204.6z"/>
		<circle fill="#353C4F" cx="301.5" cy="204.6" r="1.4"/>
	</g>
	<g id="topouter">
		<circle fill="#FFFFFF" cx="301.5" cy="187.8" r="4.1"/>
		<circle fill="#5D6372" cx="301.5" cy="187.8" r="3.7"/>
	</g>
	<g id="topinner">
		<circle fill="#F1F2F2" cx="301.5" cy="187.8" r="2.1"/>
		<circle fill="#353C4F" cx="301.5" cy="187.8" r="0.8"/>
	</g>
</g>
<g id="ipod">
	<path fill="#F1F2F2" d="M248,215.1c0,0.8-0.7,1.5-1.5,1.5h-23c-0.8,0-1.5-0.7-1.5-1.5v-1.7c0-0.8,0.7-1.5,1.5-1.5h23
		c0.8,0,1.5,0.7,1.5,1.5V215.1z"/>
	<path fill="#FFFFFF" d="M223.6,211.9c-0.8,0-1.5,0.7-1.5,1.5v1.7c0,0.7,0.5,1.3,1.2,1.4l21.5-4.6L223.6,211.9L223.6,211.9z"/>
	<g>
		<path fill="#FFFFFF" d="M290.1,228.7h-21.6c-0.7,0-1.2-0.5-1.2-1.2v-4h0.7v4c0,0.3,0.2,0.6,0.6,0.6h21.6c0.3,0,0.6-0.2,0.6-0.6
			v-9.1c0-0.3-0.2-0.6-0.6-0.6h-35.6c-0.7,0-1.2-0.5-1.2-1.2v-2c0-0.3-0.2-0.6-0.6-0.6H247v-0.7h5.8c0.7,0,1.2,0.5,1.2,1.2v2
			c0,0.3,0.2,0.6,0.6,0.6h35.6c0.7,0,1.2,0.5,1.2,1.2v9.1C291.3,228.1,290.8,228.7,290.1,228.7z"/>
	</g>
	<g>
		<path fill="#FFFFFF" d="M275,228.7h-11.4c-0.7,0-1.2-0.5-1.2-1.2v-4h0.7v4c0,0.3,0.2,0.6,0.6,0.6H275V228.7z"/>
	</g>
	<path fill="#FFFFFF" d="M264.1,222.5c0,1.2-0.6,2.2-1.4,2.2s-1.4-1-1.4-2.2s0-2.2,1.4-2.2C264.3,220.3,264.1,221.2,264.1,222.5z"/>
	<circle fill="#414042" cx="262.8" cy="221.7" r="1"/>
	<path fill="#FFFFFF" d="M269,222.5c0,1.2-0.6,2.2-1.4,2.2s-1.4-1-1.4-2.2s0-2.2,1.4-2.2C269.2,220.3,269,221.2,269,222.5z"/>
	<circle fill="#414042" cx="267.6" cy="221.7" r="1"/>
</g>
<g id="bookstack">
	<g id="book1">
		<polygon fill="#F1F2F2" points="555.9,215.1 513.8,215.1 513.8,205.7 555.9,205.7 559.2,206.8 560.6,210.4 558.7,214.6 		"/>
		<g>
			<path fill="#231F20" d="M555.9,215.6h-43.3v-1h43.3c2.3,0,4.2-1.9,4.2-4.2s-1.9-4.2-4.2-4.2h-43.3v-1h43.3c2.9,0,5.2,2.3,5.2,5.2
				S558.8,215.6,555.9,215.6z"/>
		</g>
	</g>
	<g id="book2">
		<path fill="#E74C3C" d="M554.1,195h-32.2v1h1v8.4h-1v1h32.2c2.1,0,3.9-2.3,3.9-5.2S556.2,195,554.1,195z"/>
		<g>
			<polygon fill="#FFFFFF" points="540.7,204.9 518.7,204.9 518.7,195.5 540.7,195.5 542.5,196.5 543.2,200.2 542.2,204.4 			"/>
		</g>
		<g>
			<path fill="#AD392D" d="M540.7,205.4H518v-1h22.7c1.2,0,2.2-1.9,2.2-4.2s-1-4.2-2.2-4.2H518v-1h22.7c1.5,0,2.7,2.3,2.7,5.2
				S542.2,205.4,540.7,205.4z"/>
		</g>
		<ellipse fill="#FFFFFF" cx="553.7" cy="200.2" rx="2.2" ry="1.8"/>
	</g>
	<g id="book3">
		<polygon fill="#FFFFFF" points="548.8,194 510.3,194 510.3,181.5 548.8,181.5 551.8,182.4 553.1,189.7 551.3,193.5 		"/>
		<g>
			<path fill="#5D6372" d="M548.7,194.9h-39.6v-1.8h39.6c1.9,0,3.4-1.5,3.4-3.4v-3.9c0-1.9-1.5-3.4-3.4-3.4h-39.6v-1.8h39.6
				c2.9,0,5.2,2.3,5.2,5.2v3.9C553.9,192.6,551.5,194.9,548.7,194.9z"/>
		</g>
	</g>
</g>
<g id="ipad">
	<path fill="#BCBEC0" d="M546.5,178c0,1.2-1,2.1-2.1,2.1h-25.9c-1.2,0-2.1-1-2.1-2.1v-35.8c0-1.2,1-2.1,2.1-2.1h25.9
		c1.2,0,2.1,1,2.1,2.1V178z"/>
	<path fill="#353E4B" d="M546.7,177.8c0,1.2-1,2.1-2.1,2.1h-25.9c-1.2,0-2.1-1-2.1-2.1V142c0-1.2,1-2.1,2.1-2.1h25.9
		c1.2,0,2.1,1,2.1,2.1V177.8z"/>
	<path fill="#5C6D84" d="M546.7,175.7c0,1.2-1,2.1-2.1,2.1h-25.9c-1.2,0-2.1-1-2.1-2.1v-35.8c0-1.2,1-2.1,2.1-2.1h25.9
		c1.2,0,2.1,1,2.1,2.1V175.7z"/>
	<rect x="518.8" y="140.9" fill="#FFFFFF" width="25.7" height="33.1"/>
	<path fill="#2F3743" d="M532.8,175.9c0,0.6-0.5,1.2-1.2,1.2c-0.6,0-1.2-0.5-1.2-1.2c0-0.6,0.5-1.2,1.2-1.2S532.8,175.2,532.8,175.9
		z"/>
	<path fill="#FFFFFF" d="M534.5,139.2c0,0.2-0.2,0.4-0.4,0.4h-5c-0.2,0-0.4-0.2-0.4-0.4l0,0c0-0.2,0.2-0.4,0.4-0.4h5
		C534.4,138.9,534.5,139,534.5,139.2L534.5,139.2z"/>
	<rect x="531" y="145.9" fill="#D1D3D4" width="11.4" height="1.1"/>
	<rect x="531" y="148.5" fill="#D1D3D4" width="11.4" height="1.1"/>
	<rect x="531" y="151.1" fill="#D1D3D4" width="11.4" height="1.1"/>
	<rect x="531" y="153.7" fill="#D1D3D4" width="11.4" height="1.1"/>
	<rect x="521" y="156.8" fill="#D1D3D4" width="21.4" height="1.1"/>
	<rect x="521" y="159.4" fill="#D1D3D4" width="21.4" height="1.1"/>
	<rect x="521" y="162" fill="#D1D3D4" width="21.4" height="1.1"/>
	<rect x="521" y="164.6" fill="#D1D3D4" width="21.4" height="1.1"/>
	<rect x="521" y="167.2" fill="#D1D3D4" width="21.4" height="1.1"/>
	<rect x="521" y="169.8" fill="#D1D3D4" width="21.4" height="1.1"/>
	<rect x="521" y="145.9" fill="#86B1B9" width="9" height="9"/>
</g>
<g id="picture01">
	<rect x="449.8" y="82.5" fill="#F48D6B" width="35.3" height="47.2"/>
	<path d="M444.7,77.1v58.4h45.6V77.1H444.7z M485.1,129.9H450V82.7h35.1V129.9z"/>
	
		<linearGradient id="SVGID_5_" gradientUnits="userSpaceOnUse" x1="489.0119" y1="172.0475" x2="444.8781" y2="114.9633" gradientTransform="matrix(1 0 0 -1 0 250)">
		<stop  offset="0" style="stop-color:#F1F2F2"/>
		<stop  offset="1" style="stop-color:#D1D3D4"/>
	</linearGradient>
	<path fill="url(#SVGID_5_)" d="M444.5,76.9v58.4H490V76.9H444.5z M484.9,129.7h-35.1V82.5h35.1V129.7z"/>
	<polygon fill="#231F20" points="444.8,77.2 490.3,77.2 490.3,77.4 492.1,74.4 493.2,74.4 441.9,74.4 441.9,74.4 444.8,77.3 	"/>
	<polygon fill="#231F20" points="444.8,77.3 441.9,74.4 442.4,137.2 444.8,135.5 	"/>
	<path fill="#282D3B" d="M441.1,73.4L441.1,73.4v65.3v0.1h52.3v-0.1V73.5v-0.1H441.1z M490.5,135.7v0.2H444v-0.1V76.4v-0.1h46.5v0.1
		V135.7z"/>
	<polygon fill="#353C4F" points="444.5,76.9 490,76.9 490,77 492.9,74.1 492.9,74 441.6,74 441.6,74.1 444.5,77 	"/>
	<polygon fill="#5D6372" points="490,77 490,135.1 492.9,138.1 492.9,74.1 	"/>
	<polygon fill="#353C4F" points="490,135.3 444.5,135.3 444.5,135.2 441.6,138.1 441.6,138.2 492.9,138.2 492.9,138.1 490,135.1 	
		"/>
	<polygon fill="#5D6372" points="444.5,77 441.6,74.1 441.6,138.1 444.5,135.2 	"/>
	<polygon opacity="0.4" fill="#F1F2F2" enable-background="new    " points="489.9,77 454.7,77.2 490.2,135.5 	"/>
</g>
<g id="picture02">
	<rect x="510.6" y="81.2" fill="#66A1BD" width="47.2" height="35.3"/>
	<path d="M505.2,121.6h58.4V76h-58.4V121.6z M558,81.1v35.1h-47.2V81.1H558z"/>
	
		<linearGradient id="SVGID_6_" gradientUnits="userSpaceOnUse" x1="758.8554" y1="123.2178" x2="714.7216" y2="66.1337" gradientTransform="matrix(0 -1 -1 0 629.3418 836.0215)">
		<stop  offset="0" style="stop-color:#F1F2F2"/>
		<stop  offset="1" style="stop-color:#D1D3D4"/>
	</linearGradient>
	<path fill="url(#SVGID_6_)" d="M505.1,121.7h58.4V76.2h-58.4V121.7z M557.9,81.3v35.1h-47.2V81.3H557.9z"/>
	<polygon fill="#231F20" points="505.4,121.5 505.4,75.9 505.5,75.9 502.6,74.1 502.5,73 502.5,124.3 502.6,124.3 505.5,121.5 	"/>
	<polygon fill="#231F20" points="505.5,121.5 502.6,124.3 565.4,123.8 563.6,121.5 	"/>
	<path fill="#282D3B" d="M501.6,125.1L501.6,125.1h65.3h0.1V72.8h-0.1h-65.2h-0.1V125.1z M563.9,75.7h0.2v46.5H564h-59.3h-0.1V75.7
		h0.1H563.9z"/>
	<polygon fill="#353C4F" points="505.1,121.7 505.1,76.2 505.2,76.2 502.3,73.3 502.2,73.3 502.2,124.6 502.2,124.6 505.2,121.7 	
		"/>
	<polygon fill="#5D6372" points="505.2,76.2 563.3,76.2 566.2,73.3 502.3,73.3 	"/>
	<polygon fill="#353C4F" points="563.4,76.2 563.4,121.7 563.3,121.7 566.2,124.6 566.3,124.6 566.3,73.3 566.2,73.3 563.3,76.2 	
		"/>
	<polygon fill="#5D6372" points="505.2,121.7 502.2,124.6 566.2,124.6 563.3,121.7 	"/>
	<polygon opacity="0.4" fill="#F1F2F2" enable-background="new    " points="505.2,76.3 505.4,111.5 563.6,76 	"/>
</g>
<g id="clock">
	<g id="mount">
		<rect x="311.4" y="79.5" fill="#FFFFFF" width="5.1" height="5.5"/>
		<circle fill="#405262" cx="314" cy="80.5" r="0.7"/>
	</g>
	<circle id="edge" fill="#405262" cx="314" cy="106.2" r="24"/>
	<path id="face" fill="#FFFFFF" d="M314,129c-12.5,0-22.7-10.2-22.7-22.7s10.2-22.7,22.7-22.7s22.7,10.2,22.7,22.7
		C336.8,118.8,326.6,129,314,129z"/>
	<g id="numbers">
		<g id="_x31_2">
			<path fill="#58595B" d="M311.9,88.5h0.5v-2.7h-0.5v-0.2h0.8v2.9h0.5v0.2h-1.3V88.5z"/>
			<path fill="#58595B" d="M313.7,86.4c0-0.7,0.6-0.9,1.2-0.9s1.2,0.2,1.2,0.9c0,0.6-0.6,0.9-1.2,0.9c-0.5,0-1,0.1-1,0.7v0.5h2.2
				v0.2h-2.4V88c0-0.7,0.6-0.9,1.2-0.9c0.4,0,1-0.2,1-0.7c0-0.6-0.6-0.7-1-0.7s-1,0.1-1,0.7H313.7z"/>
		</g>
		<g id="_x33_">
			<path fill="#58595B" d="M332.5,105.4c0-0.7,0.6-0.8,1.2-0.8c0.7,0,1.2,0.4,1.2,0.8s-0.3,0.7-0.7,0.7c0.4,0.1,0.7,0.4,0.7,0.8
				c0,0.5-0.4,0.9-1.2,0.9c-0.5,0-1.2-0.2-1.2-0.8h0.2c0,0.6,0.6,0.6,1,0.6c0.7,0,1-0.3,1-0.7c0-0.3-0.3-0.7-1-0.7h-0.5V106h0.5
				c0.6,0,0.9-0.3,0.9-0.6c0-0.3-0.3-0.6-0.9-0.6c-0.4,0-1,0.1-1,0.6H332.5z"/>
		</g>
		<g id="_x39_">
			<path fill="#58595B" d="M295,106.1c-0.3,0.4-0.6,0.4-1,0.4c-0.6,0-1.2-0.3-1.2-1s0.6-1,1.2-1c0.6,0,1.2,0.3,1.2,1v1.4
				c0,0.6-0.6,0.9-1.2,0.9c-0.6,0-1.2-0.3-1.2-0.8h0.2c0,0.4,0.4,0.6,1,0.6c0.5,0,1-0.2,1-0.7V106.1z M293,105.5
				c0,0.6,0.5,0.8,1,0.8c0.4,0,1-0.2,1-0.7c0-0.6-0.5-0.7-1-0.7C293.6,104.8,293,105,293,105.5z"/>
		</g>
		<g id="_x36_">
			<path fill="#58595B" d="M313,125.8c0.3-0.4,0.6-0.4,1-0.4c0.6,0,1.2,0.3,1.2,1s-0.6,1-1.2,1c-0.6,0-1.2-0.3-1.2-1V125
				c0-0.6,0.6-0.9,1.2-0.9c0.6,0,1.2,0.3,1.2,0.8H315c0-0.4-0.4-0.6-1-0.6c-0.5,0-1,0.2-1,0.7V125.8z M315,126.3
				c0-0.5-0.5-0.8-1-0.8s-1,0.2-1,0.7c0,0.6,0.5,0.7,1,0.7C314.5,127.1,315,126.9,315,126.3z"/>
		</g>
	</g>
	<path id="minute" fill="#E74C3C" d="M314,106.3L314,106.3c-0.1,0-0.1-0.1-0.1-0.1l13.3-16.5h0.1v0.1L314,106.3
		C314.1,106.3,314,106.3,314,106.3z"/>
	<g id="second">
		<path fill="#2D4255" d="M314,106.6c-0.2,0-0.3-0.1-0.3-0.3V89.7c0-0.2,0.1-0.3,0.3-0.3s0.3,0.1,0.3,0.3v16.5
			C314.3,106.4,314.2,106.6,314,106.6z"/>
	</g>
	<g id="hour">
		<path fill="#2D4255" d="M324.8,117.3c-0.1,0-0.2,0-0.2-0.1l-10.7-10.7c-0.1-0.1-0.1-0.3,0-0.4c0.1-0.1,0.3-0.1,0.4,0l10.7,10.7
			c0.1,0.1,0.1,0.3,0,0.4C324.9,117.2,324.8,117.3,324.8,117.3z"/>
	</g>
	<g>
	<g id="readmorebutton">
		<!-- <path id="buttonoutline" fill="#FFFFFF" d="M252.7,132.8h-65.4v-19h65.4L252.7,132.8L252.7,132.8z M188.3,131.8h63.4v-17h-63.4
			L188.3,131.8L188.3,131.8z"/> -->
		<text id="buttontext" transform="matrix(1 0 0 1 375 86.4793)" >x</text>
		<rect id="buttonbackground" x="342" y="73.8" fill="#000000" fill-opacity="0" stroke="#777777" stroke-miterlimit="10" width="66" height="19"/>
	</g>
	<text id="maintitle" transform="matrix(1 0 0 1 375 35.0181)" >x</text>
	<text id="subtitle" class="subtitle" transform="matrix(1 0 0 1 375 49.5181)" >x</text>
	<text id="subtitle2" class="subtitle" transform="matrix(1 0 0 1 375 62.5181)">x</text>
</g>
</g>
</svg>
