<?xml version="1.0" encoding="utf-8"?>
<!-- Generator: Adobe Illustrator 16.0.0, SVG Export Plug-In . SVG Version: 6.00 Build 0)  -->
<!DOCTYPE svg PUBLIC "-//W3C//DTD SVG 1.1//EN" "http://www.w3.org/Graphics/SVG/1.1/DTD/svg11.dtd">
<svg version="1.1" id="desk01" xmlns="http://www.w3.org/2000/svg" xmlns:xlink="http://www.w3.org/1999/xlink" x="0px" y="0px"
	 width="2134.394px" height="375.4px" viewBox="-506.859 -0.4 2134.394 375.4"
	 enable-background="new -506.859 -0.4 2134.394 375.4" xml:space="preserve">
<rect id="background" x="-515.858" fill="#86B1B9" width="2149.393" height="375"/>
<g id="imac">
	<polygon fill="#A7A9AC" points="507.881,260.385 441.88,260.385 436.82,321.096 514.55,321.096 	"/>
	<rect x="423.252" y="318.566" fill="#A7A9AC" width="105.096" height="12.647"/>
	<polygon fill="#F1F2F2" points="508.57,259.693 442.569,259.693 437.741,320.406 515.239,320.406 	"/>
	<rect x="423.943" y="317.875" fill="#D1D3D4" width="105.092" height="12.648"/>
	<polygon fill="#E6E7E8" points="512.25,296.027 508.801,259.693 442.8,259.693 439.12,304.537 	"/>
	<path fill="#939598" d="M609.757,266.133V138.041c0-6.209-4.832-11.04-10.81-11.04H352.882c-5.978,0-10.808,5.059-10.808,11.04
		v128.092c0,5.291,0,9.432,0,9.432v1.608l0,0c0.232,7.13,6.208,12.88,13.338,12.88h240.547c7.359,0,13.798-5.75,13.798-13.109l0,0
		v-1.148C609.757,275.562,609.757,271.424,609.757,266.133z"/>
	<path fill="#F2F2F2" d="M610.446,264.982V136.891c0-6.208-4.828-11.04-10.809-11.04H353.573c-5.979,0-10.809,5.059-10.809,11.04
		v128.093c0,5.289,0,9.432,0,9.432v1.607l0,0c0.232,7.131,6.209,12.879,13.341,12.879h240.316c7.356,0,13.799-5.748,13.799-13.107
		l0,0v-1.15C610.446,274.643,610.446,270.273,610.446,264.982z"/>
	<path fill="#353C4F" d="M604.237,141.49c0-5.059-3.909-9.198-8.967-9.198h-237.1c-4.83,0-8.966,4.14-8.966,9.198v123.724
		c0,5.06,0,9.198,0,9.198h255.032c0,0,0-4.139,0-9.198V141.49L604.237,141.49z"/>
	<rect x="356.562" y="140.11" fill="#F48D6B" width="241.467" height="126.482"/>
	<g>
		<rect x="358.402" y="139.881" fill="#808285" width="238.934" height="126.712"/>
		<rect x="357.022" y="142.181" fill="#58595B" width="18.397" height="124.183"/>
		<rect x="547.896" y="144.021" fill="#58595B" width="50.134" height="122.572"/>
		<rect x="419.113" y="160.578" fill="#FFFFFF" width="91.986" height="91.986"/>
		<rect x="361.622" y="158.278" fill="#FFFFFF" width="6.899" height="6.899"/>
		<rect x="361.622" y="167.478" fill="#FFFFFF" width="6.899" height="6.899"/>
		<rect x="361.622" y="176.676" fill="#FFFFFF" width="6.899" height="6.899"/>
		<rect x="361.622" y="188.175" fill="#FFFFFF" width="6.899" height="4.599"/>
		<rect x="361.622" y="197.373" fill="#FFFFFF" width="6.899" height="4.6"/>
		<rect x="361.622" y="206.572" fill="#FFFFFF" width="6.899" height="4.6"/>
		<rect x="361.622" y="215.771" fill="#FFFFFF" width="6.899" height="4.6"/>
		<rect x="361.622" y="224.971" fill="#FFFFFF" width="6.899" height="4.598"/>
		<rect x="361.852" y="250.266" fill="#FFFFFF" width="2.067" height="2.067"/>
		<rect x="365.301" y="250.266" fill="#F17046" width="2.067" height="2.067"/>
		<rect x="368.751" y="250.266" fill="#A4D165" width="2.067" height="2.067"/>
		<rect x="552.954" y="159.198" fill="#FFFFFF" width="40.016" height="18.397"/>
		<rect x="552.954" y="182.426" fill="#6D6E71" width="40.016" height="18.397"/>
		<rect x="553.185" y="205.65" fill="#FFFFFF" width="40.015" height="18.397"/>
		<rect x="553.185" y="228.878" fill="#BDC3C7" width="40.015" height="18.397"/>
		<rect x="437.511" y="139.881" fill="#FFFFFF" width="16.099" height="2.3"/>
		<rect x="356.562" y="139.421" fill="#58595B" width="241.467" height="15.638"/>
		<polygon fill="#FFFFFF" points="361.622,142.181 375.419,142.181 375.419,142.181 		"/>
		<polygon fill="#FFFFFF" points="377.719,142.181 391.518,142.181 391.518,142.181 		"/>
		<polygon fill="#FFFFFF" points="391.518,142.181 405.315,142.181 405.315,142.181 		"/>
		<polygon fill="#FFFFFF" points="407.615,142.181 421.413,142.181 421.413,142.181 		"/>
		<polygon fill="#FFFFFF" points="421.413,142.181 435.211,142.181 435.211,142.181 		"/>
		<polygon fill="#FFFFFF" points="437.511,142.181 451.309,142.181 451.309,142.181 		"/>
		<rect x="366.451" y="148.39" fill="#F17046" width="2.756" height="2.99"/>
		<rect x="373.12" y="148.39" fill="#F0C100" width="2.759" height="2.99"/>
		<rect x="386.918" y="149.08" fill="#FFFFFF" width="11.499" height="2.3"/>
		<rect x="403.016" y="149.08" fill="#FFFFFF" width="22.997" height="2.3"/>
		<rect x="428.312" y="149.08" fill="#FFFFFF" width="16.099" height="2.3"/>
		<rect x="455.908" y="149.08" fill="#FFFFFF" width="16.098" height="2.3"/>
		<rect x="476.605" y="149.08" fill="#FFFFFF" width="13.798" height="2.3"/>
		<rect x="499.603" y="149.08" fill="#FFFFFF" width="13.799" height="2.3"/>
		<rect x="516.39" y="148.39" fill="#FFFFFF" width="13.108" height="2.99"/>
		<rect x="554.104" y="160.349" fill="#E84C3D" width="6.898" height="3.219"/>
		<rect x="561.924" y="160.349" fill="#ED7064" width="6.899" height="3.219"/>
		<rect x="569.513" y="160.349" fill="#F1948B" width="6.898" height="3.219"/>
		<rect x="577.101" y="160.349" fill="#F6B7B1" width="6.899" height="3.219"/>
		<rect x="584.69" y="160.349" fill="#FADBD8" width="6.898" height="3.219"/>
		<rect x="554.104" y="164.487" fill="#F6BF1A" width="6.898" height="3.217"/>
		<rect x="561.924" y="164.487" fill="#F8CC48" width="6.899" height="3.217"/>
		<rect x="569.513" y="164.487" fill="#FAD976" width="6.898" height="3.217"/>
		<rect x="577.101" y="164.487" fill="#FBE5A3" width="6.899" height="3.217"/>
		<rect x="584.69" y="164.487" fill="#FDF2D1" width="6.898" height="3.217"/>
		<rect x="554.104" y="168.627" fill="#0097CE" width="6.898" height="3.218"/>
		<rect x="561.924" y="168.627" fill="#33ACD8" width="6.899" height="3.218"/>
		<rect x="569.513" y="168.627" fill="#66C1E2" width="6.898" height="3.218"/>
		<rect x="577.101" y="168.627" fill="#99D5EB" width="6.899" height="3.218"/>
		<rect x="584.69" y="168.627" fill="#CCEAF5" width="6.898" height="3.218"/>
		<rect x="554.104" y="172.996" fill="#FF7800" width="6.898" height="3.22"/>
		<rect x="561.924" y="172.996" fill="#FF9333" width="6.899" height="3.22"/>
		<rect x="569.513" y="172.996" fill="#FFAE66" width="6.898" height="3.22"/>
		<rect x="577.101" y="172.996" fill="#FFC999" width="6.899" height="3.22"/>
		<rect x="584.69" y="172.996" fill="#F0DFD0" width="6.898" height="3.22"/>
		<rect x="553.646" y="182.654" fill="#E84C3D" width="2.531" height="2.532"/>
		<rect x="556.175" y="182.654" fill="#FFF200" width="2.528" height="2.532"/>
		<rect x="558.703" y="182.654" fill="#00A651" width="2.53" height="2.532"/>
		<rect x="561.233" y="182.654" fill="#00AEEF" width="2.531" height="2.532"/>
		<rect x="563.763" y="182.654" fill="#2E3192" width="2.53" height="2.532"/>
		<rect x="566.293" y="182.654" fill="#BE1E2D" width="2.532" height="2.532"/>
		<rect x="568.823" y="182.654" fill="#EF4136" width="2.527" height="2.532"/>
		<rect x="571.352" y="182.654" fill="#F15A29" width="2.53" height="2.532"/>
		<rect x="573.882" y="182.654" fill="#F7941E" width="2.532" height="2.532"/>
		<rect x="576.642" y="182.654" fill="#FBB040" width="2.532" height="2.532"/>
		<rect x="579.172" y="182.654" fill="#FBB040" width="2.528" height="2.532"/>
		<rect x="581.7" y="182.654" fill="#F9ED32" width="2.53" height="2.532"/>
		<rect x="584.229" y="182.654" fill="#D7DF23" width="2.531" height="2.532"/>
		<rect x="586.76" y="182.654" fill="#D7DF23" width="2.53" height="2.532"/>
		<rect x="589.29" y="182.654" fill="#8DC63F" width="2.532" height="2.532"/>
		<rect x="556.175" y="208.182" fill="#414042" width="31.963" height="0.69"/>
		<rect x="556.175" y="210.48" fill="#414042" width="19.087" height="0.69"/>
		<rect x="556.175" y="214.16" fill="#F0C100" width="33.112" height="7.359"/>
		<path fill="#ECF0F1" d="M363.921,238.768v6.899h6.899v-6.899H363.921z M370.82,243.367h-4.6v-4.6h4.6V243.367z"/>
		<rect x="361.622" y="234.168" fill="#F17046" width="6.899" height="6.898"/>
		<path fill="#BCDC90" d="M464.188,182.885c0.456,0,0.916,0,1.379,0c-3.45-5.749-9.658-9.891-16.787-9.891
			c-10.81,0-19.547,8.74-19.547,19.547c0,8.05,4.83,14.947,11.958,17.939c-0.232-1.383-0.46-2.76-0.46-4.142
			C440.73,193.464,451.309,182.885,464.188,182.885z"/>
		<path fill="#F48D6B" d="M468.096,192.544c0-3.45-0.917-6.899-2.529-9.657c-0.459,0-0.921,0-1.38,0
			c-12.881,0-23.456,10.579-23.456,23.455c0,1.383,0.229,2.76,0.46,4.143c2.3,0.916,4.828,1.606,7.589,1.606
			C459.358,212.091,468.096,203.352,468.096,192.544z"/>
		<path fill="#B27941" d="M468.096,192.544c0-3.45-0.917-6.899-2.529-9.657c-0.459,0-0.921,0-1.38,0
			c-12.881,0-23.456,10.579-23.456,23.455c0,1.383,0.229,2.76,0.46,4.143c2.3,0.916,4.828,1.606,7.589,1.606
			C459.358,212.091,468.096,203.352,468.096,192.544z"/>
		<path fill="#F28D6F" d="M483.504,209.562c1.382,0,2.532,0.229,3.682,0.459c0.229-1.148,0.229-2.299,0.229-3.682
			c0-12.416-9.658-22.538-22.076-23.455c1.607,2.758,2.529,6.207,2.529,9.656c0,10.809-8.738,19.548-19.547,19.548
			c-2.76,0-5.289-0.458-7.588-1.608c2.066,10.808,11.499,19.088,22.997,19.315c0-0.229,0-0.46,0-0.688
			C463.957,218.3,472.695,209.562,483.504,209.562z"/>
		<path fill="#9BDFF7" d="M487.184,210.021c-1.842,11.266-11.498,19.775-22.997,19.775l0,0c0.457,10.35,8.967,18.857,19.315,18.857
			c10.808,0,19.547-8.738,19.547-19.547C503.052,219.68,496.153,211.861,487.184,210.021z"/>
		<path fill="#F48D6B" d="M487.184,210.021c-1.149-0.232-2.531-0.461-3.682-0.461c-10.809,0-19.315,8.738-19.315,19.547
			c0,0.23,0,0.461,0,0.689l0,0C475.915,229.798,485.574,221.29,487.184,210.021z"/>
		<path fill="#917B69" d="M487.184,210.021c-1.149-0.232-2.531-0.461-3.682-0.461c-10.809,0-19.315,8.738-19.315,19.547
			c0,0.23,0,0.461,0,0.689l0,0C475.915,229.798,485.574,221.29,487.184,210.021z"/>
		<path fill="#9BDFF7" d="M481.435,172.996c0-1.84,1.15-3.449,2.989-3.907c-1.382-2.069-3.682-3.682-6.438-3.682
			c-4.143,0-7.359,3.449-7.359,7.589c0,4.142,3.45,7.591,7.359,7.591c2.757,0,5.057-1.382,6.438-3.682
			C482.585,176.216,481.435,174.836,481.435,172.996z"/>
		<path fill="#F28D6F" d="M485.344,168.856c-0.457,0-0.688,0-1.149,0.232c0.692,1.149,1.149,2.53,1.149,3.907
			c0,1.383-0.457,2.76-1.149,3.909c0.46,0,0.692,0.232,1.149,0.232c2.3,0,4.144-1.842,4.144-4.142
			C489.486,170.697,487.644,168.856,485.344,168.856z"/>
		<path fill="#99DFF9" d="M484.424,168.856c-1.609,0.46-2.989,2.07-2.989,3.91c0,1.839,1.15,3.449,2.989,3.909
			c0.689-1.149,1.15-2.531,1.15-3.909C485.344,171.387,485.114,170.006,484.424,168.856z"/>
		<path fill="#917B69" d="M484.424,168.856c-1.609,0.46-2.989,2.07-2.989,3.91c0,1.839,1.15,3.449,2.989,3.909
			c0.689-1.149,1.15-2.531,1.15-3.909C485.344,171.387,485.114,170.006,484.424,168.856z"/>
		<path fill="#BCDC90" d="M463.727,236.236c0-2.299-1.839-4.139-4.139-4.139c-2.07,0-3.91,1.609-4.142,3.909
			c2.531,0,4.832,1.839,5.519,4.14C462.577,239.457,463.727,238.077,463.727,236.236z"/>
		<path fill="#F28D6F" d="M455.448,236.236v-0.229l0,0c-3.217,0-5.75,2.529-5.75,5.749s2.532,5.979,5.75,5.979
			c3.219,0,5.98-2.53,5.98-5.979c0-0.688-0.231-1.149-0.231-1.84c-0.457,0.229-0.917,0.229-1.38,0.229
			C457.289,240.377,455.448,238.537,455.448,236.236z"/>
		<path fill="#D1E8B2" d="M455.448,236.008L455.448,236.008c0,2.529,1.842,4.369,4.142,4.369c0.457,0,0.917,0,1.379-0.232
			C460.277,237.618,458.208,236.008,455.448,236.008z"/>
		<path fill="#B27941" d="M455.448,236.008L455.448,236.008c0,2.529,1.842,4.369,4.142,4.369c0.457,0,0.917,0,1.379-0.232
			C460.277,237.618,458.208,236.008,455.448,236.008z"/>
	</g>
	<path opacity="0.3" fill="#FFFFFF" enable-background="new    " d="M539.847,125.854H353.803c-5.981,0-10.809,5.059-10.809,11.04
		l-0.46,141.197L539.847,125.854z"/>
</g>
<g id="coffee01">
	<g>
		<g>
			<g>
				<g>
					<g>
						<g>
							<g>
								<defs>
									<rect id="SVGID_1_" x="635.514" y="241.986" width="88.077" height="52.434"/>
								</defs>
								<clipPath id="SVGID_2_">
									<use xlink:href="#SVGID_1_"  overflow="visible"/>
								</clipPath>
								<path id="coffeesteam" clip-path="url(#SVGID_2_)" fill="#F1F2F2" d="M661.729,292.579c-0.69-0.917-1.841-2.065-3.218-2.065
									h-15.181c-1.38,0-2.3-0.922-2.3-2.301v-2.07c0-1.379,0.92-2.3,2.3-2.3h20.237c1.382,0,2.3-0.915,2.3-2.3v-1.842
									c0-1.379-0.918-2.301-2.3-2.301h-8.509c-1.383,0-2.301-0.92-2.301-2.299v-2.07c0-1.379,0.918-2.301,2.301-2.301h23.916
									c1.383,0,2.301-0.916,2.301-2.299v-0.689c0-1.379-0.918-2.299-2.301-2.299h-13.339c-1.379,0-2.3-0.918-2.3-2.301v-0.92
									c0-1.382,0.921-2.3,2.3-2.3h51.515c1.379,0,2.3,0.918,2.3,2.3v2.758c0,1.383-0.921,2.302-2.3,2.302h-22.077
									c-1.38,0-2.3,0.919-2.3,2.3v0.691c0,1.379,0.92,2.3,2.3,2.3h3.449c1.383,0,2.3,0.916,2.3,2.3v2.527
									c0,1.38-0.917,2.301-2.3,2.301h-19.089c-1.379,0-2.3,0.921-2.3,2.3v0.921c0,1.379,0.921,2.301,2.3,2.301h11.498
									c1.381,0,2.301,0.916,2.301,2.299v2.528c0,1.38-0.92,2.3-2.301,2.3h-15.866c0,0-2.53,1.15-1.606,3.221
									c0.917,2.066-8.281,0-8.281,0S662.88,294.189,661.729,292.579z"/>
							</g>
						</g>
					</g>
				</g>
			</g>
		</g>
	</g>
	<g id="_x3C_Group_x3E_">
		<path fill="#F7DC6F" d="M694.155,297.178c-0.46,0-1.149,0.234-1.61,0.234c0-1.609,0-2.992,0-2.992h-19.547v35.874h12.188v-6.67
			c2.989-2.758,5.289-6.438,6.439-10.349c4.599-0.458,11.498-4.6,11.268-8.965C702.663,300.17,698.755,296.949,694.155,297.178z
			 M692.085,311.207c0.23-1.149,0.23-2.299,0.23-3.681c0-1.841,0-5.292,0-8.28c3.219,0.23,5.749,2.761,5.98,5.98
			C698.755,308.677,695.765,310.747,692.085,311.207z"/>
		<path fill="#F4D03F" d="M646.552,294.648c0,0,0,9.66,0,12.878c0,6.44,2.76,12.189,7.359,16.098v6.67h19.313V294.42h-26.674
			L646.552,294.648L646.552,294.648z"/>
	</g>
</g>
<g id="pictures">
	<g id="picture05">
		<rect x="162.699" y="118.264" fill="#FFFFFF" width="119.583" height="62.781"/>
		<rect x="167.299" y="122.863" fill="#F7DC6F" width="110.384" height="53.583"/>
	</g>
	<rect id="picture04" x="82.9" y="118.034" fill="#C49A6C" width="64.161" height="61.401"/>
	<g id="picture03">
		<rect x="213.062" y="4.2" fill="#FFFFFF" width="64.852" height="102.104"/>
		<rect x="217.661" y="8.8" fill="#FFFFFF" width="55.653" height="92.904"/>
		<rect x="213.062" y="4.2" fill="#FFFFFF" width="64.852" height="102.104"/>
		<rect x="217.661" y="8.8" fill="#5C6D84" width="55.653" height="92.904"/>
	</g>
	<g id="picture02">
		<rect x="138.322" y="4.2" fill="#FFFFFF" width="64.852" height="102.104"/>
		<rect x="142.922" y="8.8" fill="#F48D6B" width="55.652" height="92.904"/>
	</g>
	<rect id="picture01" x="82.9" y="66.751" fill="#FFFFFF" width="42.087" height="40.475"/>
</g>
<g id="flowers">
	<g id="vase">
		<g id="flowerorange">
			<path fill="#A4D165" d="M813.968,259.465c-1.379-13.798-5.749-29.207-15.406-47.604l-2.301,0.918
				c9.433,17.938,13.568,34.953,15.182,46.453L813.968,259.465L813.968,259.465L813.968,259.465z"/>
			<path fill="#F17046" d="M804.08,208.182L804.08,208.182c2.299-2.07,2.299-5.52,0.229-7.591l-0.229-0.229
				c-2.07-2.301-5.75-2.53-8.05-0.461l0,0c0.461-2.988-1.839-5.75-5.061-5.979h-0.459c-3.217-0.461-5.979,1.608-6.438,4.6l0,0
				c-1.84-2.532-5.289-3.221-7.819-1.609l-0.229,0.229c-2.761,1.609-3.45,5.06-1.609,7.592l0,0c-2.99-0.92-6.21,0.689-6.899,3.68
				l-0.229,0.461c-0.92,2.988,0.688,5.979,3.909,6.898l0,0c-2.76,1.149-4.143,4.367-2.992,7.127l0.232,0.461
				c1.148,2.761,4.6,4.14,7.589,2.99l0,0c-1.38,2.76-0.229,5.98,2.528,7.358l0.461,0.229c2.532,1.383,5.749,0.459,7.358-1.84
				c0.92,2.531,3.68,4.139,6.438,3.448h0.459c2.99-0.688,5.061-3.448,4.37-6.438l0,0c2.529,1.84,5.979,1.381,8.05-0.92l0.229-0.229
				c1.841-2.3,1.61-5.75-0.92-7.589l0,0c2.993-0.231,5.52-2.532,5.292-5.749v-0.461C809.829,210.48,807.299,207.951,804.08,208.182z
				"/>
			<path fill="#F0C100" d="M797.181,216.689c-0.688,4.601-5.06,8.05-9.889,7.358c-4.831-0.688-8.509-4.827-7.819-9.657
				c0.69-4.601,5.061-8.05,9.891-7.357C794.191,207.723,797.87,212.091,797.181,216.689z"/>
			<path opacity="0.3" fill="#353C4F" enable-background="new    " d="M810.059,213.7v-0.459c-0.229-2.99-2.76-5.29-5.979-5.29l0,0
				c2.299-2.067,2.299-5.518,0.229-7.59l-0.229-0.229c-2.07-2.299-5.75-2.53-8.05-0.459l0,0c0.461-2.989-1.839-5.749-5.061-5.981
				h-0.229l-4.832,37.944l0.231-0.229c0.917,2.528,3.68,4.139,6.438,3.448h0.461c2.988-0.688,5.056-3.448,4.366-6.438l0,0
				c2.532,1.839,5.981,1.379,8.049-0.921l0.232-0.229c1.84-2.3,1.606-5.748-0.921-7.588l0,0
				C807.76,219.221,810.289,216.689,810.059,213.7z"/>
		</g>
		<g id="flowerwhite">
			<path fill="#A4D165" d="M811.668,257.165c2.76-11.498,6.899-27.829,13.108-45.534l-2.529-0.92
				c-6.438,17.938-10.579,32.656-13.338,46.454H811.668z"/>
			<path fill="#FFFFFF" d="M846.396,205.882L846.396,205.882c2.067-1.842,2.3-5.059,0.23-7.358l-0.23-0.229
				c-2.068-2.067-5.519-2.3-7.592-0.458l0,0c0.233-2.759-1.839-5.291-4.6-5.749h-0.458c-2.991-0.46-5.749,1.606-5.98,4.366l0,0
				c-1.609-2.299-5.059-2.988-7.357-1.607l-0.229,0.231c-2.531,1.608-3.22,4.828-1.609,7.128l0,0
				c-2.759-0.689-5.749,0.689-6.669,3.449v0.461c-0.918,2.76,0.689,5.749,3.682,6.438l0,0c-2.76,1.149-3.91,4.141-2.76,6.67
				l0.229,0.459c1.149,2.53,4.369,3.908,7.131,2.758l0,0c-1.382,2.533-0.231,5.521,2.53,6.899l0.232,0.231
				c2.527,1.15,5.516,0.46,6.897-1.84c0.917,2.3,3.45,3.908,6.208,3.449h0.458c2.991-0.459,4.833-3.22,4.143-5.981l0,0
				c2.299,1.841,5.749,1.383,7.59-0.917l0.229-0.232c1.84-2.3,1.382-5.517-0.919-7.357l0,0c2.992-0.23,5.291-2.53,5.059-5.291
				v-0.459C851.912,208.182,849.384,205.882,846.396,205.882z"/>
			<path fill="#F0C100" d="M839.725,214.16c-0.46,4.369-4.831,7.589-9.43,6.898c-4.6-0.688-8.051-4.6-7.356-9.197
				c0.456-4.369,4.827-7.59,9.428-6.899C836.966,205.652,840.185,209.791,839.725,214.16z"/>
			<path opacity="0.3" fill="#353C4F" enable-background="new    " d="M851.912,211.4v-0.459c-0.229-2.758-2.528-5.059-5.519-5.059
				l0,0c2.068-1.842,2.301-5.059,0.231-7.357l-0.231-0.232c-2.067-2.066-5.518-2.3-7.591-0.458l0,0
				c0.233-2.759-1.839-5.291-4.6-5.749h-0.229l-4.6,36.104l0.229-0.229c0.922,2.299,3.449,3.909,6.209,3.449h0.462
				c2.988-0.461,4.827-3.22,4.139-5.979l0,0c2.3,1.842,5.749,1.381,7.589-0.92l0.233-0.229c1.839-2.301,1.379-5.521-0.922-7.358l0,0
				C849.844,216.46,852.144,214.16,851.912,211.4z"/>
		</g>
		<path fill="#E6E7E8" d="M840.646,241.986v71.289c0,9.891-8.049,17.938-17.938,17.938h-29.896c-9.89,0-17.938-8.049-17.938-17.938
			v-71.289H840.646z"/>
		<path fill="#D1D3D4" d="M792.812,331.215h29.896c9.89,0,17.938-8.049,17.938-17.938v-70.831l-65.771,64.391v6.44
			C774.646,323.166,782.693,331.215,792.812,331.215z"/>
	</g>
</g>
<g id="pencilholder">
	<g id="scissors">
		<path fill="#F1F2F2" d="M277.914,275.331c-3.682,0.46-6.442,3.685-5.982,7.358c0.459,3.682,3.682,6.438,7.358,5.98
			c3.68-0.458,6.44-3.681,5.979-7.357C284.812,277.4,281.592,274.873,277.914,275.331z M279.063,286.371
			c-2.532,0.229-4.6-1.383-4.832-3.909c-0.23-2.53,1.382-4.601,3.909-4.831c2.53-0.23,4.6,1.381,4.83,3.907
			C283.202,283.841,281.592,286.141,279.063,286.371z"/>
		<path fill="#F1F2F2" d="M291.94,273.723c-3.679,0.459-6.438,3.68-5.978,7.357c0.457,3.681,3.678,6.441,7.356,5.98
			c3.682-0.461,6.442-3.682,5.981-7.359C299.07,275.791,295.62,273.264,291.94,273.723z M293.321,284.761
			c-2.53,0.229-4.6-1.381-4.83-3.909c-0.229-2.528,1.38-4.6,3.91-4.828c2.53-0.233,4.6,1.379,4.83,3.908
			C297.46,282.23,295.851,284.529,293.321,284.761z"/>
		<g>
			<polygon fill="#F1F2F2" points="291.481,324.545 288.491,324.316 288.951,285.223 291.94,285.223 			"/>
		</g>
		<g>
			<polygon fill="#F1F2F2" points="290.101,321.324 280.902,286.602 283.663,285.911 293.09,320.635 			"/>
		</g>
	</g>
	<g id="ruler">
		
			<rect x="224.893" y="298.901" transform="matrix(0.2156 0.9765 -0.9765 0.2156 516.4128 -29.4302)" fill="#F2D34F" width="103.265" height="15.637"/>
		
			<rect x="270.174" y="253.513" transform="matrix(0.2153 0.9766 -0.9766 0.2153 462.1679 -63.7468)" fill="#58595B" width="1.15" height="4.369"/>
		
			<rect x="272.279" y="257.579" transform="matrix(0.2149 0.9766 -0.9766 0.2149 466.6893 -63.5243)" fill="#58595B" width="1.15" height="1.84"/>
		
			<rect x="273.131" y="261.003" transform="matrix(0.2169 0.9762 -0.9762 0.2169 470.0318 -62.0748)" fill="#58595B" width="1.15" height="1.841"/>
		
			<rect x="273.961" y="264.635" transform="matrix(0.2152 0.9766 -0.9766 0.2152 474.7807 -59.7001)" fill="#58595B" width="1.148" height="1.838"/>
		
			<rect x="274.619" y="267.658" transform="matrix(0.2149 0.9766 -0.9766 0.2149 478.3705 -57.8965)" fill="#58595B" width="1.15" height="1.84"/>
		
			<rect x="274.131" y="270.162" transform="matrix(0.2157 0.9765 -0.9765 0.2157 481.3972 -54.6321)" fill="#58595B" width="1.15" height="4.369"/>
		
			<rect x="276.144" y="274.235" transform="matrix(0.2165 0.9763 -0.9763 0.2165 485.444 -54.5693)" fill="#58595B" width="1.15" height="1.838"/>
		
			<rect x="277.029" y="277.696" transform="matrix(0.2171 0.9762 -0.9762 0.2171 489.3195 -52.8464)" fill="#58595B" width="1.149" height="1.841"/>
		
			<rect x="277.413" y="281.263" transform="matrix(0.2168 0.9762 -0.9762 0.2168 493.1759 -50.3797)" fill="#58595B" width="1.148" height="1.837"/>
		
			<rect x="278.363" y="284.18" transform="matrix(0.215 0.9766 -0.9766 0.215 497.3847 -48.6203)" fill="#58595B" width="1.149" height="1.839"/>
		
			<rect x="277.722" y="286.962" transform="matrix(0.2149 0.9766 -0.9766 0.2149 500.8948 -44.7771)" fill="#58595B" width="1.15" height="4.369"/>
		
			<rect x="279.816" y="291.004" transform="matrix(0.2149 0.9766 -0.9766 0.2149 505.2516 -44.641)" fill="#58595B" width="1.15" height="1.84"/>
		
			<rect x="280.383" y="294.249" transform="matrix(0.2172 0.9761 -0.9761 0.2172 508.04 -43.2024)" fill="#58595B" width="1.149" height="1.839"/>
		
			<rect x="281.236" y="297.624" transform="matrix(0.215 0.9766 -0.9766 0.215 512.7692 -40.8722)" fill="#58595B" width="1.149" height="1.84"/>
		
			<rect x="282.009" y="300.956" transform="matrix(0.2149 0.9766 -0.9766 0.2149 516.6921 -38.9696)" fill="#58595B" width="1.15" height="1.839"/>
		
			<rect x="281.672" y="303.324" transform="matrix(0.2145 0.9767 -0.9767 0.2145 520.1179 -35.6898)" fill="#58595B" width="1.15" height="4.369"/>
		
			<rect x="283.512" y="307.573" transform="matrix(0.2171 0.9762 -0.9762 0.2171 523.5583 -35.7842)" fill="#58595B" width="1.149" height="1.838"/>
		
			<rect x="283.987" y="310.793" transform="matrix(0.2171 0.9762 -0.9762 0.2171 527.0748 -33.7252)" fill="#58595B" width="1.149" height="1.841"/>
		
			<rect x="285.145" y="314.345" transform="matrix(0.215 0.9766 -0.9766 0.215 532.1672 -31.5648)" fill="#58595B" width="1.149" height="1.839"/>
		
			<rect x="285.505" y="317.783" transform="matrix(0.2166 0.9763 -0.9763 0.2166 535.2452 -29.6192)" fill="#58595B" width="1.147" height="1.839"/>
		
			<rect x="285.142" y="319.815" transform="matrix(0.2157 0.9765 -0.9765 0.2157 538.5166 -26.4403)" fill="#58595B" width="1.15" height="4.368"/>
		
			<rect x="286.947" y="324.468" transform="matrix(0.2127 0.9771 -0.9771 0.2127 544.3239 -24.7534)" fill="#58595B" width="1.15" height="1.84"/>
		
			<rect x="287.899" y="327.378" transform="matrix(0.2129 0.9771 -0.9771 0.2129 547.8341 -23.4553)" fill="#58595B" width="1.151" height="1.839"/>
		
			<rect x="288.465" y="330.923" transform="matrix(0.2161 0.9764 -0.9764 0.2161 550.5878 -22.0742)" fill="#58595B" width="1.15" height="1.837"/>
		
			<rect x="289.284" y="334.278" transform="matrix(0.215 0.9766 -0.9766 0.215 554.8839 -19.9605)" fill="#58595B" width="1.149" height="1.84"/>
		
			<rect x="288.884" y="336.58" transform="matrix(0.2149 0.9766 -0.9766 0.2149 558.1165 -16.7226)" fill="#58595B" width="1.15" height="4.367"/>
		
			<rect x="290.687" y="340.817" transform="matrix(0.2149 0.9766 -0.9766 0.2149 562.436 -16.1485)" fill="#58595B" width="1.15" height="1.84"/>
		
			<rect x="291.573" y="344.271" transform="matrix(0.2169 0.9762 -0.9762 0.2169 565.7598 -14.871)" fill="#58595B" width="1.15" height="1.839"/>
		
			<rect x="292.028" y="347.657" transform="matrix(0.2165 0.9763 -0.9763 0.2165 569.5697 -12.5486)" fill="#58595B" width="1.15" height="1.838"/>
		
			<rect x="293.097" y="350.757" transform="matrix(0.2149 0.9766 -0.9766 0.2149 574.0366 -10.6978)" fill="#58595B" width="1.15" height="1.84"/>
		
			<rect x="292.552" y="353.132" transform="matrix(0.2149 0.9766 -0.9766 0.2149 577.1625 -7.3087)" fill="#58595B" width="1.15" height="4.369"/>
		
			<rect x="268.692" y="256.066" transform="matrix(0.9765 -0.2157 0.2157 0.9765 -59.944 66.0303)" fill="#F0C100" width="7.82" height="103.267"/>
	</g>
	<g id="pencilred">
		<g>
			<path fill="#F1F2F2" d="M297.69,333.515l-0.92,7.128c-0.23,1.61,0.232,2.762,1.15,2.989l4.143,0.461
				c0.917,0.229,1.606-0.921,1.839-2.528l0.917-7.134L297.69,333.515z"/>
			<g>
				
					<rect x="301.329" y="283.831" transform="matrix(-0.9906 -0.1365 0.1365 -0.9906 564.9376 654.2262)" fill="#ED6F5D" width="7.128" height="47.837"/>
				
					<rect x="304.576" y="284.099" transform="matrix(-0.9906 -0.1367 0.1367 -0.9906 567.8621 655.0203)" fill="#E94B35" width="3.68" height="47.836"/>
			</g>
			<polygon fill="#D1D3D4" points="297.23,334.665 304.819,335.814 305.049,331.673 305.279,330.983 298.15,330.065 297.92,330.755 
							"/>
			
				<rect x="297.225" y="331.23" transform="matrix(-0.9907 -0.1361 0.1361 -0.9907 554.0615 705.1711)" fill="#5C6D84" width="7.821" height="4.831"/>
			<polygon fill="#F1F2F2" points="309.648,272.803 311.718,284.07 304.589,283.15 			"/>
			<polygon fill="#414042" points="309.648,272.803 308.499,274.873 310.109,275.102 			"/>
		</g>
	</g>
	<g id="pencilblack">
		<g>
			<path fill="#F1F2F2" d="M297.23,335.814l0.689,7.356c0.232,1.607,0.919,2.758,1.843,2.531l4.139-0.461
				c0.917,0,1.38-1.379,1.38-2.989l-0.691-7.359L297.23,335.814z"/>
			<g>
				
					<rect x="294.924" y="285.01" transform="matrix(-0.9962 0.087 -0.087 -0.9962 622.7191 590.7168)" fill="#6A707D" width="7.129" height="47.833"/>
				
					<rect x="298.38" y="285.005" transform="matrix(-0.9962 0.087 -0.087 -0.9962 626.1907 590.5425)" fill="#454C5D" width="3.68" height="47.836"/>
			</g>
			<polygon fill="#D1D3D4" points="297.23,337.193 304.819,336.504 304.129,332.365 304.129,331.673 297,332.365 297,332.823 			"/>
			
				<rect x="296.793" y="332.598" transform="matrix(-0.9962 0.0873 -0.0873 -0.9962 629.5048 642.4929)" fill="#5C6D84" width="7.819" height="4.829"/>
			<polygon fill="#F1F2F2" points="295.39,273.723 299.989,284.529 292.861,285.223 			"/>
			<polygon fill="#414042" points="295.39,273.723 294.931,276.021 296.311,276.021 			"/>
		</g>
	</g>
	<g id="cup">
		<polygon fill="#F1F2F2" points="303.669,371.688 276.764,371.688 268.254,306.146 311.948,306.146 		"/>
		<polygon fill="#E6E7E8" points="311.948,306.146 268.254,306.146 272.164,336.965 311.028,313.736 		"/>
		<rect x="265.265" y="306.146" fill="#F1F2F2" width="48.75" height="7.129"/>
	</g>
</g>
<g id="lamp">
	<g id="lampbase">
		<g id="lamparm1">
			<g id="lamparm2">
				<polygon id="_x3C_Path_x3E__1_" fill="#FFFFFF" points="128.434,249.116 121.764,242.677 191.675,174.836 199.494,178.976 				
					"/>
				<g id="lampshade">
					<path id="lampbulb" fill="#FFFFFF" d="M241.808,214.85c-0.46,7.82-7.132,13.569-14.948,13.109
						c-7.818-0.461-13.568-7.13-13.108-14.948c0.46-7.817,7.129-13.567,14.948-13.108
						C236.519,200.361,242.269,207.262,241.808,214.85z"/>
					<polygon fill="#454C5D" points="261.125,181.505 190.985,243.137 190.755,184.495 210.993,173.686 					"/>
					<polygon fill="#171F34" points="221.111,175.526 191.215,202.432 170.518,162.418 183.396,150.919 					"/>
				</g>
			</g>
			<path id="_x3C_Path_x3E_" fill="#FFFFFF" d="M187.305,310.287l-65.77-63.701l6.667-7.129l71.06,71.061L187.305,310.287z"/>
			<path fill="#171F34" d="M138.783,246.586c0,5.982-4.832,11.041-11.042,11.041c-5.979,0-11.038-4.832-11.038-11.041
				c0-5.979,4.832-11.039,11.038-11.039C133.723,235.547,138.783,240.377,138.783,246.586z"/>
			<path fill="#FFFFFF" d="M134.413,246.586c0,3.684-2.989,6.441-6.439,6.441c-3.682,0-6.438-2.991-6.438-6.441
				c0-3.68,2.989-6.439,6.438-6.439C131.423,239.917,134.413,242.906,134.413,246.586z"/>
		</g>
		<path fill="#FFFFFF" d="M209.152,316.268c0,0.689-0.459,1.149-1.149,1.149h-1.379c-0.693,0-1.15-0.46-1.15-1.149v-11.729
			c0-0.688,0.457-1.149,1.15-1.149h1.379c0.69,0,1.149,0.461,1.149,1.149V316.268z"/>
		<path fill="#171F34" d="M232.609,322.706c0-6.67-17.018-12.188-38.177-12.188c-21.154,0-38.175,5.517-38.175,12.188H232.609z"/>
		<rect x="145.222" y="322.706" fill="#FFFFFF" width="99.346" height="7.588"/>
	</g>
</g>
<g id="bookshelf">
	<rect id="book6" x="835.354" y="15.699" fill="#353C4F" width="21.847" height="86.005"/>
	<rect id="book5" x="819.947" y="33.175" fill="#F17046" width="12.418" height="68.761"/>
	<rect id="book3" x="782.002" y="22.367" fill="#ECF0F1" width="14.718" height="79.569"/>
	<g id="leaningbook">
		
			<rect x="663.804" y="15.739" transform="matrix(1 0.0057 -0.0057 1 0.3457 -3.8445)" fill="#F17046" width="21.847" height="86.014"/>
		
			<rect x="669.781" y="41.289" transform="matrix(1 0.0058 -0.0058 1 0.4137 -3.9366)" fill="#ECF0F1" width="9.198" height="55.197"/>
		<circle fill="#ECF0F1" cx="674.378" cy="33.406" r="6.209"/>
	</g>
	<g id="book4">
		<rect x="797.411" y="15.699" fill="#F0C100" width="21.847" height="86.005"/>
		<rect x="802.01" y="22.598" fill="#F17046" width="12.418" height="12.418"/>
		<rect x="802.01" y="42.145" fill="#F17046" width="12.418" height="39.554"/>
		<rect x="802.01" y="86.528" fill="#F17046" width="12.418" height="12.418"/>
	</g>
	<g id="book1">
		<rect x="737.158" y="15.699" fill="#353C4F" width="21.848" height="86.005"/>
		<rect x="741.758" y="20.757" fill="#FFFFFF" width="12.418" height="12.418"/>
		<rect x="741.758" y="40.305" fill="#FFFFFF" width="12.418" height="39.555"/>
		<rect x="741.758" y="84.459" fill="#FFFFFF" width="12.418" height="12.418"/>
	</g>
	<g id="book2">
		<rect x="759.236" y="15.699" fill="#F0C100" width="21.847" height="86.005"/>
		<rect x="759.236" y="33.175" fill="#FFFFFF" width="21.847" height="4.37"/>
		<rect x="759.236" y="79.859" fill="#FFFFFF" width="21.847" height="4.369"/>
	</g>
	<rect id="shelfright" x="655.75" y="105.845" fill="#F1F2F2" width="11.959" height="34.263"/>
	<rect id="shelfleft" x="854.212" y="106.995" fill="#F1F2F2" width="11.959" height="34.263"/>
	<g id="shelftop">
		<rect x="632.064" y="111.825" fill="#939598" width="260.553" height="5.519"/>
		<rect x="632.064" y="101.707" fill="#F1F2F2" width="260.553" height="10.349"/>
	</g>
</g>
<g id="desktop1">
	<rect id="deskshadow" x="120.845" y="357.891" fill="#454C5D" fill-opacity="0.3" width="751.078" height="11.498"/>
	<rect id="_x3C_Path_x3E__2_" x="96.468" y="330.294" fill="#FFFFFF" width="796.379" height="41.396"/>
</g>
<g id="bookondesk">
	<polygon fill="#FFFFFF" points="413.824,303.158 409.915,305.919 323.907,305.919 323.907,284.761 409.224,284.761 413.824,290.05 
			"/>
	<g>
		<path fill="#5C6D84" d="M406.465,307.758h-86.698v-2.988h86.698c3.683,0,6.669-2.992,6.669-6.67v-5.061
			c0-3.68-2.989-6.668-6.669-6.668h-86.698v-2.991h86.698c5.289,0,9.658,4.37,9.658,9.659v5.061
			C416.123,303.389,411.754,307.758,406.465,307.758z"/>
	</g>
	<polygon id="bookmark" fill="#F17046" points="352.423,311.896 345.754,307.298 339.314,311.896 339.314,294.42 352.423,294.42 	
		"/>
</g>
</svg>
