<?xml version="1.0" encoding="utf-8"?>
<!-- Generator: Adobe Illustrator 16.0.0, SVG Export Plug-In . SVG Version: 6.00 Build 0)  -->
<!DOCTYPE svg PUBLIC "-//W3C//DTD SVG 1.1//EN" "http://www.w3.org/Graphics/SVG/1.1/DTD/svg11.dtd">
<svg version="1.1" id="desk01" xmlns="http://www.w3.org/2000/svg" xmlns:xlink="http://www.w3.org/1999/xlink" x="0px" y="0px"
	 width="1000px" height="375px" viewBox="0 0 1000 375" enable-background="new 0 0 1000 375" xml:space="preserve">
<rect id="background" x="0" fill="#86B1B9" width="1000" height="375"/>
<g id="imac">
	<polygon fill="#A7A9AC" points="258.7,185.6 230,185.6 227.8,212 261.6,212 	"/>
	<rect x="221.9" y="210.9" fill="#A7A9AC" width="45.7" height="5.5"/>
	<polygon fill="#F1F2F2" points="259,185.3 230.3,185.3 228.2,211.7 261.9,211.7 	"/>
	<rect x="222.2" y="210.6" fill="#D1D3D4" width="45.699" height="5.5"/>
	<polygon fill="#E6E7E8" points="260.6,201.1 259.1,185.3 230.4,185.3 228.8,204.8 	"/>
	<path fill="#939598" d="M303,188.1V132.4c0-2.7-2.101-4.801-4.7-4.801h-107c-2.6,0-4.7,2.2-4.7,4.801V188.1
		c0,2.301,0,4.101,0,4.101v0.7l0,0c0.101,3.1,2.7,5.6,5.8,5.6H297c3.2,0,6-2.5,6-5.7l0,0v-0.5C303,192.2,303,190.4,303,188.1z"/>
	<path fill="#F2F2F2" d="M303.3,187.6V131.9c0-2.7-2.1-4.801-4.7-4.801h-107c-2.6,0-4.7,2.2-4.7,4.801V187.6
		c0,2.301,0,4.101,0,4.101v0.7l0,0c0.101,3.1,2.7,5.6,5.801,5.6h104.5c3.199,0,6-2.5,6-5.7l0,0v-0.5
		C303.3,191.8,303.3,189.9,303.3,187.6z"/>
	<path fill="#353C4F" d="M300.6,133.9c0-2.2-1.7-4-3.899-4H193.6c-2.1,0-3.899,1.8-3.899,4v53.8c0,2.2,0,4,0,4H300.6c0,0,0-1.8,0-4
		V133.9L300.6,133.9z"/>
	<rect x="192.9" y="133.3" fill="#F48D6B" width="105" height="55"/>
	<g>
		<rect x="193.7" y="133.2" fill="#808285" width="103.899" height="55.1"/>
		<rect x="193.1" y="134.2" fill="#58595B" width="8" height="54"/>
		<rect x="276.1" y="135" fill="#58595B" width="21.8" height="53.3"/>
		<rect x="220.1" y="142.2" fill="#FFFFFF" width="40" height="40"/>
		<rect x="195.1" y="141.2" fill="#FFFFFF" width="3" height="3"/>
		<rect x="195.1" y="145.2" fill="#FFFFFF" width="3" height="3"/>
		<rect x="195.1" y="149.2" fill="#FFFFFF" width="3" height="3"/>
		<rect x="195.1" y="154.2" fill="#FFFFFF" width="3" height="2"/>
		<rect x="195.1" y="158.2" fill="#FFFFFF" width="3" height="2"/>
		<rect x="195.1" y="162.2" fill="#FFFFFF" width="3" height="2"/>
		<rect x="195.1" y="166.2" fill="#FFFFFF" width="3" height="2"/>
		<rect x="195.1" y="170.2" fill="#FFFFFF" width="3" height="2"/>
		<rect x="195.2" y="181.2" fill="#FFFFFF" width="0.899" height="0.899"/>
		<rect x="196.7" y="181.2" fill="#F17046" width="0.899" height="0.899"/>
		<rect x="198.2" y="181.2" fill="#A4D165" width="0.899" height="0.899"/>
		<rect x="278.3" y="141.6" fill="#FFFFFF" width="17.4" height="8"/>
		<rect x="278.3" y="151.7" fill="#6D6E71" width="17.4" height="8"/>
		<rect x="278.4" y="161.8" fill="#FFFFFF" width="17.4" height="8"/>
		<rect x="278.4" y="171.9" fill="#BDC3C7" width="17.4" height="8"/>
		<rect x="228.1" y="133.2" fill="#FFFFFF" width="7" height="1"/>
		<rect x="192.9" y="133" fill="#58595B" width="105" height="6.8"/>
		<polygon fill="#FFFFFF" points="195.1,134.2 201.1,134.2 201.1,134.2 		"/>
		<polygon fill="#FFFFFF" points="202.1,134.2 208.1,134.2 208.1,134.2 		"/>
		<polygon fill="#FFFFFF" points="208.1,134.2 214.1,134.2 214.1,134.2 		"/>
		<polygon fill="#FFFFFF" points="215.1,134.2 221.1,134.2 221.1,134.2 		"/>
		<polygon fill="#FFFFFF" points="221.1,134.2 227.1,134.2 227.1,134.2 		"/>
		<polygon fill="#FFFFFF" points="228.1,134.2 234.1,134.2 234.1,134.2 		"/>
		<rect x="197.2" y="136.9" fill="#F17046" width="1.199" height="1.3"/>
		<rect x="200.1" y="136.9" fill="#F0C100" width="1.2" height="1.3"/>
		<rect x="206.1" y="137.2" fill="#FFFFFF" width="5" height="1"/>
		<rect x="213.1" y="137.2" fill="#FFFFFF" width="10" height="1"/>
		<rect x="224.1" y="137.2" fill="#FFFFFF" width="7" height="1"/>
		<rect x="236.1" y="137.2" fill="#FFFFFF" width="7" height="1"/>
		<rect x="245.1" y="137.2" fill="#FFFFFF" width="6" height="1"/>
		<rect x="255.1" y="137.2" fill="#FFFFFF" width="6" height="1"/>
		<rect x="262.4" y="136.9" fill="#FFFFFF" width="5.7" height="1.3"/>
		<rect x="278.8" y="142.1" fill="#E84C3D" width="3" height="1.4"/>
		<rect x="282.2" y="142.1" fill="#ED7064" width="3" height="1.4"/>
		<rect x="285.5" y="142.1" fill="#F1948B" width="3" height="1.4"/>
		<rect x="288.8" y="142.1" fill="#F6B7B1" width="3" height="1.4"/>
		<rect x="292.1" y="142.1" fill="#FADBD8" width="3" height="1.4"/>
		<rect x="278.8" y="143.9" fill="#F6BF1A" width="3" height="1.399"/>
		<rect x="282.2" y="143.9" fill="#F8CC48" width="3" height="1.399"/>
		<rect x="285.5" y="143.9" fill="#FAD976" width="3" height="1.399"/>
		<rect x="288.8" y="143.9" fill="#FBE5A3" width="3" height="1.399"/>
		<rect x="292.1" y="143.9" fill="#FDF2D1" width="3" height="1.399"/>
		<rect x="278.8" y="145.7" fill="#0097CE" width="3" height="1.399"/>
		<rect x="282.2" y="145.7" fill="#33ACD8" width="3" height="1.399"/>
		<rect x="285.5" y="145.7" fill="#66C1E2" width="3" height="1.399"/>
		<rect x="288.8" y="145.7" fill="#99D5EB" width="3" height="1.399"/>
		<rect x="292.1" y="145.7" fill="#CCEAF5" width="3" height="1.399"/>
		<rect x="278.8" y="147.6" fill="#FF7800" width="3" height="1.4"/>
		<rect x="282.2" y="147.6" fill="#FF9333" width="3" height="1.4"/>
		<rect x="285.5" y="147.6" fill="#FFAE66" width="3" height="1.4"/>
		<rect x="288.8" y="147.6" fill="#FFC999" width="3" height="1.4"/>
		<rect x="292.1" y="147.6" fill="#F0DFD0" width="3" height="1.4"/>
		<rect x="278.6" y="151.8" fill="#E84C3D" width="1.101" height="1.101"/>
		<rect x="279.7" y="151.8" fill="#FFF200" width="1.1" height="1.101"/>
		<rect x="280.8" y="151.8" fill="#00A651" width="1.1" height="1.101"/>
		<rect x="281.9" y="151.8" fill="#00AEEF" width="1.101" height="1.101"/>
		<rect x="283" y="151.8" fill="#2E3192" width="1.1" height="1.101"/>
		<rect x="284.1" y="151.8" fill="#BE1E2D" width="1.101" height="1.101"/>
		<rect x="285.2" y="151.8" fill="#EF4136" width="1.1" height="1.101"/>
		<rect x="286.3" y="151.8" fill="#F15A29" width="1.1" height="1.101"/>
		<rect x="287.4" y="151.8" fill="#F7941E" width="1.101" height="1.101"/>
		<rect x="288.6" y="151.8" fill="#FBB040" width="1.101" height="1.101"/>
		<rect x="289.7" y="151.8" fill="#FBB040" width="1.1" height="1.101"/>
		<rect x="290.8" y="151.8" fill="#F9ED32" width="1.1" height="1.101"/>
		<rect x="291.9" y="151.8" fill="#D7DF23" width="1.101" height="1.101"/>
		<rect x="293" y="151.8" fill="#D7DF23" width="1.1" height="1.101"/>
		<rect x="294.1" y="151.8" fill="#8DC63F" width="1.101" height="1.101"/>
		<rect x="279.7" y="162.9" fill="#414042" width="13.899" height="0.3"/>
		<rect x="279.7" y="163.9" fill="#414042" width="8.3" height="0.3"/>
		<rect x="279.7" y="165.5" fill="#F0C100" width="14.399" height="3.2"/>
		<path fill="#ECF0F1" d="M196.1,176.2v3h3v-3H196.1z M199.1,178.2h-2v-2h2V178.2z"/>
		<rect x="195.1" y="174.2" fill="#F17046" width="3" height="3"/>
		<path fill="#BCDC90" d="M239.7,151.9c0.199,0,0.399,0,0.6,0c-1.5-2.5-4.2-4.301-7.3-4.301c-4.7,0-8.5,3.801-8.5,8.5
			c0,3.5,2.1,6.5,5.2,7.801c-0.101-0.601-0.2-1.2-0.2-1.801C229.5,156.5,234.1,151.9,239.7,151.9z"/>
		<path fill="#F48D6B" d="M241.4,156.1c0-1.5-0.399-3-1.1-4.199c-0.2,0-0.4,0-0.6,0c-5.601,0-10.2,4.6-10.2,10.199
			c0,0.601,0.1,1.2,0.2,1.801c1,0.399,2.1,0.699,3.3,0.699C237.6,164.6,241.4,160.8,241.4,156.1z"/>
		<path fill="#B27941" d="M241.4,156.1c0-1.5-0.399-3-1.1-4.199c-0.2,0-0.4,0-0.6,0c-5.601,0-10.2,4.6-10.2,10.199
			c0,0.601,0.1,1.2,0.2,1.801c1,0.399,2.1,0.699,3.3,0.699C237.6,164.6,241.4,160.8,241.4,156.1z"/>
		<path fill="#F28D6F" d="M248.1,163.5c0.601,0,1.101,0.1,1.601,0.2c0.1-0.5,0.1-1,0.1-1.601c0-5.399-4.2-9.8-9.6-10.199
			c0.699,1.199,1.1,2.699,1.1,4.199c0,4.7-3.8,8.5-8.5,8.5c-1.2,0-2.3-0.199-3.3-0.699c0.899,4.699,5,8.3,10,8.399
			c0-0.1,0-0.2,0-0.3C239.6,167.3,243.4,163.5,248.1,163.5z"/>
		<path fill="#9BDFF7" d="M249.7,163.7c-0.801,4.899-5,8.6-10,8.6l0,0c0.199,4.5,3.899,8.2,8.399,8.2c4.7,0,8.5-3.8,8.5-8.5
			C256.6,167.9,253.6,164.5,249.7,163.7z"/>
		<path fill="#F48D6B" d="M249.7,163.7c-0.5-0.101-1.101-0.2-1.601-0.2c-4.7,0-8.399,3.8-8.399,8.5c0,0.1,0,0.2,0,0.3l0,0
			C244.8,172.3,249,168.6,249.7,163.7z"/>
		<path fill="#917B69" d="M249.7,163.7c-0.5-0.101-1.101-0.2-1.601-0.2c-4.7,0-8.399,3.8-8.399,8.5c0,0.1,0,0.2,0,0.3l0,0
			C244.8,172.3,249,168.6,249.7,163.7z"/>
		<path fill="#9BDFF7" d="M247.2,147.6c0-0.8,0.5-1.5,1.3-1.699c-0.601-0.9-1.601-1.601-2.8-1.601c-1.801,0-3.2,1.5-3.2,3.3
			c0,1.801,1.5,3.301,3.2,3.301c1.199,0,2.199-0.601,2.8-1.601C247.7,149,247.2,148.4,247.2,147.6z"/>
		<path fill="#F28D6F" d="M248.9,145.8c-0.199,0-0.3,0-0.5,0.101c0.301,0.5,0.5,1.1,0.5,1.699c0,0.601-0.199,1.2-0.5,1.7
			c0.2,0,0.301,0.101,0.5,0.101c1,0,1.801-0.801,1.801-1.801S249.9,145.8,248.9,145.8z"/>
		<path fill="#99DFF9" d="M248.5,145.8c-0.7,0.2-1.3,0.9-1.3,1.7s0.5,1.5,1.3,1.7c0.3-0.5,0.5-1.101,0.5-1.7
			C248.9,146.9,248.8,146.3,248.5,145.8z"/>
		<path fill="#917B69" d="M248.5,145.8c-0.7,0.2-1.3,0.9-1.3,1.7s0.5,1.5,1.3,1.7c0.3-0.5,0.5-1.101,0.5-1.7
			C248.9,146.9,248.8,146.3,248.5,145.8z"/>
		<path fill="#BCDC90" d="M239.5,175.1c0-1-0.8-1.8-1.8-1.8c-0.9,0-1.7,0.7-1.801,1.7c1.101,0,2.101,0.8,2.4,1.8
			C239,176.5,239.5,175.9,239.5,175.1z"/>
		<path fill="#F28D6F" d="M235.9,175.1V175l0,0c-1.399,0-2.5,1.1-2.5,2.5s1.101,2.6,2.5,2.6c1.4,0,2.601-1.1,2.601-2.6
			c0-0.3-0.101-0.5-0.101-0.8c-0.199,0.1-0.399,0.1-0.6,0.1C236.7,176.9,235.9,176.1,235.9,175.1z"/>
		<path fill="#D1E8B2" d="M235.9,175L235.9,175c0,1.1,0.801,1.9,1.801,1.9c0.199,0,0.399,0,0.6-0.101C238,175.7,237.1,175,235.9,175
			z"/>
		<path fill="#B27941" d="M235.9,175L235.9,175c0,1.1,0.801,1.9,1.801,1.9c0.199,0,0.399,0,0.6-0.101C238,175.7,237.1,175,235.9,175
			z"/>
	</g>
	<path opacity="0.3" fill="#FFFFFF" enable-background="new    " d="M272.6,127.1H191.7c-2.601,0-4.7,2.2-4.7,4.801l-0.2,61.399
		L272.6,127.1z"/>
</g>
<g id="coffee01">
	<g>
		<g>
			<g>
				<g>
					<g>
						<defs>
							<rect id="SVGID_1_" x="314.2" y="177.6" width="38.3" height="22.801"/>
						</defs>
						<clipPath id="SVGID_2_">
							<use xlink:href="#SVGID_1_"  overflow="visible"/>
						</clipPath>
						<path id="coffeesteam" clip-path="url(#SVGID_2_)" fill="#F1F2F2" d="M325.6,199.6c-0.3-0.399-0.8-0.899-1.399-0.899H317.6
							c-0.6,0-1-0.4-1-1v-0.9c0-0.6,0.4-1,1-1h8.8c0.601,0,1-0.399,1-1V194c0-0.6-0.399-1-1-1H322.7c-0.601,0-1-0.4-1-1v-0.9
							c0-0.6,0.399-1,1-1H333.1c0.601,0,1-0.399,1-1v-0.3c0-0.6-0.399-1-1-1h-5.8c-0.6,0-1-0.399-1-1V186.4c0-0.601,0.4-1,1-1h22.4
							c0.6,0,1,0.399,1,1v1.199c0,0.601-0.4,1-1,1H340.1c-0.6,0-1,0.4-1,1v0.301c0,0.6,0.4,1,1,1h1.5c0.601,0,1,0.399,1,1v1.1
							c0,0.6-0.399,1-1,1h-8.3c-0.6,0-1,0.4-1,1v0.4c0,0.6,0.4,1,1,1h5c0.6,0,1,0.399,1,1v1.1c0,0.6-0.4,1-1,1h-6.9
							c0,0-1.1,0.5-0.699,1.4c0.399,0.899-3.601,0-3.601,0S326.1,200.3,325.6,199.6z"/>
					</g>
				</g>
			</g>
		</g>
	</g>
	<g id="_x3C_Group_x3E_">
		<path fill="#F7DC6F" d="M339.7,201.6c-0.2,0-0.5,0.101-0.7,0.101c0-0.7,0-1.3,0-1.3h-8.5V216h5.3v-2.9c1.3-1.199,2.3-2.8,2.8-4.5
			c2-0.199,5-2,4.9-3.899C343.4,202.9,341.7,201.5,339.7,201.6z M338.8,207.7c0.1-0.5,0.1-1,0.1-1.601c0-0.8,0-2.3,0-3.6
			c1.4,0.1,2.5,1.2,2.601,2.6C341.7,206.6,340.4,207.5,338.8,207.7z"/>
		<path fill="#F4D03F" d="M319,200.5c0,0,0,4.2,0,5.6c0,2.801,1.2,5.301,3.2,7v2.9h8.399v-15.6H319V200.5z"/>
	</g>
</g>
<g id="pictures">
	<g id="picture05">
		<rect x="108.6" y="123.8" fill="#FFFFFF" width="52" height="27.3"/>
		<rect x="110.6" y="125.8" fill="#F7DC6F" width="48" height="23.3"/>
	</g>
	<rect id="picture04" x="73.9" y="123.7" fill="#C49A6C" width="27.9" height="26.7"/>
	<g id="picture03">
		<rect x="130.5" y="74.2" fill="#FFFFFF" width="28.2" height="44.399"/>
		<rect x="132.5" y="76.2" fill="#FFFFFF" width="24.2" height="40.399"/>
		<rect x="130.5" y="74.2" fill="#FFFFFF" width="28.2" height="44.399"/>
		<rect x="132.5" y="76.2" fill="#5C6D84" width="24.2" height="40.399"/>
	</g>
	<g id="picture02">
		<rect x="98" y="74.2" fill="#FFFFFF" width="28.2" height="44.399"/>
		<rect x="100" y="76.2" fill="#F48D6B" width="24.2" height="40.399"/>
	</g>
	<rect id="picture01" x="73.9" y="101.4" fill="#FFFFFF" width="18.301" height="17.6"/>
</g>
<g id="flowers">
	<g id="vase">
		<g id="flowerorange">
			<path fill="#A4D165" d="M391.8,185.2c-0.6-6-2.5-12.7-6.7-20.7l-1,0.4c4.101,7.8,5.9,15.199,6.601,20.199L391.8,185.2
				L391.8,185.2L391.8,185.2z"/>
			<path fill="#F17046" d="M387.5,162.9L387.5,162.9c1-0.9,1-2.4,0.1-3.301l-0.1-0.1c-0.9-1-2.5-1.1-3.5-0.2l0,0
				c0.2-1.3-0.8-2.5-2.2-2.6h-0.2c-1.399-0.2-2.6,0.7-2.8,2l0,0c-0.8-1.101-2.3-1.4-3.4-0.7l-0.1,0.1c-1.2,0.7-1.5,2.2-0.7,3.301
				l0,0c-1.3-0.4-2.7,0.3-3,1.6l-0.1,0.2c-0.4,1.3,0.3,2.6,1.7,3l0,0c-1.2,0.5-1.801,1.899-1.301,3.1l0.101,0.2
				c0.5,1.2,2,1.8,3.3,1.3l0,0c-0.6,1.2-0.1,2.601,1.1,3.2l0.2,0.1c1.101,0.601,2.5,0.2,3.2-0.8c0.4,1.101,1.6,1.8,2.8,1.5h0.2
				c1.3-0.3,2.2-1.5,1.9-2.8l0,0c1.1,0.8,2.6,0.6,3.5-0.4l0.1-0.1c0.8-1,0.7-2.5-0.4-3.3l0,0c1.301-0.101,2.4-1.101,2.301-2.5v-0.2
				C390,163.9,388.9,162.8,387.5,162.9z"/>
			<path fill="#F0C100" d="M384.5,166.6c-0.3,2-2.2,3.5-4.3,3.2c-2.101-0.3-3.7-2.1-3.4-4.2c0.3-2,2.2-3.5,4.3-3.199
				C383.2,162.7,384.8,164.6,384.5,166.6z"/>
			<path opacity="0.3" fill="#353C4F" enable-background="new    " d="M390.1,165.3v-0.2c-0.1-1.3-1.2-2.3-2.6-2.3l0,0
				c1-0.899,1-2.399,0.1-3.3l-0.1-0.1c-0.9-1-2.5-1.101-3.5-0.2l0,0c0.2-1.3-0.8-2.5-2.2-2.601h-0.1l-2.101,16.5l0.101-0.1
				c0.399,1.1,1.6,1.8,2.8,1.5h0.2c1.3-0.3,2.199-1.5,1.899-2.8l0,0c1.101,0.8,2.601,0.6,3.5-0.4l0.101-0.1c0.8-1,0.699-2.5-0.4-3.3
				l0,0C389.1,167.7,390.2,166.6,390.1,165.3z"/>
		</g>
		<g id="flowerwhite">
			<path fill="#A4D165" d="M390.8,184.2c1.2-5,3-12.101,5.7-19.8L395.4,164c-2.8,7.8-4.6,14.2-5.8,20.2H390.8z"/>
			<path fill="#FFFFFF" d="M405.9,161.9L405.9,161.9c0.9-0.801,1-2.2,0.101-3.2L405.9,158.6c-0.899-0.899-2.399-1-3.3-0.199l0,0
				c0.101-1.2-0.8-2.301-2-2.5h-0.2c-1.3-0.2-2.5,0.699-2.6,1.899l0,0c-0.7-1-2.2-1.3-3.2-0.7l-0.1,0.101
				c-1.101,0.7-1.4,2.1-0.7,3.1l0,0c-1.2-0.3-2.5,0.3-2.9,1.5v0.2c-0.399,1.2,0.3,2.5,1.601,2.8l0,0c-1.2,0.5-1.7,1.8-1.2,2.9
				l0.1,0.2c0.5,1.1,1.9,1.699,3.101,1.199l0,0c-0.601,1.101-0.101,2.4,1.1,3l0.101,0.101c1.1,0.5,2.399,0.2,3-0.8
				c0.399,1,1.5,1.699,2.699,1.5h0.2c1.3-0.2,2.101-1.4,1.8-2.601l0,0c1,0.8,2.5,0.601,3.301-0.399l0.1-0.101
				c0.8-1,0.6-2.399-0.4-3.2l0,0c1.301-0.1,2.301-1.1,2.2-2.3v-0.2C408.3,162.9,407.2,161.9,405.9,161.9z"/>
			<path fill="#F0C100" d="M403,165.5c-0.2,1.9-2.101,3.3-4.101,3s-3.5-2-3.199-4c0.199-1.9,2.1-3.3,4.1-3S403.2,163.6,403,165.5z"
				/>
			<path opacity="0.3" fill="#353C4F" enable-background="new    " d="M408.3,164.3v-0.2c-0.1-1.199-1.1-2.199-2.4-2.199l0,0
				c0.9-0.801,1-2.2,0.101-3.2L405.9,158.6c-0.899-0.899-2.399-1-3.3-0.199l0,0c0.101-1.2-0.8-2.301-2-2.5h-0.1l-2,15.699l0.1-0.1
				c0.4,1,1.5,1.7,2.7,1.5h0.2c1.3-0.2,2.1-1.4,1.8-2.6l0,0c1,0.8,2.5,0.6,3.3-0.4l0.101-0.1c0.8-1,0.6-2.4-0.4-3.2l0,0
				C407.4,166.5,408.4,165.5,408.3,164.3z"/>
		</g>
		<path fill="#E6E7E8" d="M403.4,177.6v31c0,4.301-3.5,7.801-7.8,7.801h-13c-4.3,0-7.8-3.5-7.8-7.801v-31H403.4z"/>
		<path fill="#D1D3D4" d="M382.6,216.4h13c4.3,0,7.8-3.5,7.8-7.801v-30.8l-28.6,28v2.8C374.7,212.9,378.2,216.4,382.6,216.4z"/>
	</g>
</g>
<g id="pencilholder">
	<g id="scissors">
		<path fill="#F1F2F2" d="M158.7,192.1c-1.601,0.2-2.801,1.601-2.601,3.2c0.2,1.601,1.601,2.8,3.2,2.601c1.6-0.2,2.8-1.601,2.6-3.2
			C161.7,193,160.3,191.9,158.7,192.1z M159.2,196.9c-1.101,0.1-2-0.601-2.101-1.7c-0.1-1.101,0.601-2,1.7-2.101
			c1.1-0.1,2,0.601,2.1,1.7C161,195.8,160.3,196.8,159.2,196.9z"/>
		<path fill="#F1F2F2" d="M164.8,191.4c-1.6,0.199-2.8,1.6-2.6,3.199c0.199,1.601,1.6,2.801,3.199,2.601
			C167,197,168.2,195.6,168,194C167.9,192.3,166.4,191.2,164.8,191.4z M165.4,196.2c-1.1,0.1-2-0.601-2.1-1.7s0.6-2,1.7-2.1
			c1.1-0.101,2,0.6,2.1,1.699C167.2,195.1,166.5,196.1,165.4,196.2z"/>
		<g>
			<polygon fill="#F1F2F2" points="164.6,213.5 163.3,213.4 163.5,196.4 164.8,196.4 			"/>
		</g>
		<g>
			<polygon fill="#F1F2F2" points="164,212.1 160,197 161.2,196.7 165.3,211.8 			"/>
		</g>
	</g>
	<g id="ruler">

			<rect x="135.648" y="202.348" transform="matrix(0.2156 0.9765 -0.9765 0.2156 324.9227 7.0095)" fill="#F2D34F" width="44.902" height="6.8"/>

			<rect x="155.33" y="182.612" transform="matrix(0.2149 0.9766 -0.9766 0.2149 301.4264 -7.8255)" fill="#58595B" width="0.5" height="1.9"/>

			<rect x="156.245" y="184.379" transform="matrix(0.2149 0.9766 -0.9766 0.2149 303.3342 -7.763)" fill="#58595B" width="0.5" height="0.8"/>

			<rect x="156.62" y="185.881" transform="matrix(0.2167 0.9762 -0.9762 0.2167 304.7259 -7.2322)" fill="#58595B" width="0.5" height="0.8"/>

			<rect x="156.963" y="187.443" transform="matrix(0.2149 0.9766 -0.9766 0.2149 306.8888 -6.0587)" fill="#58595B" width="0.5" height="0.799"/>

			<rect x="157.263" y="188.762" transform="matrix(0.2149 0.9766 -0.9766 0.2149 308.4136 -5.3157)" fill="#58595B" width="0.5" height="0.8"/>

			<rect x="157.052" y="189.87" transform="matrix(0.2167 0.9762 -0.9762 0.2167 309.4959 -4.0992)" fill="#58595B" width="0.5" height="1.9"/>

			<rect x="157.929" y="191.636" transform="matrix(0.2167 0.9762 -0.9762 0.2167 311.3698 -4.0022)" fill="#58595B" width="0.5" height="0.799"/>

			<rect x="158.314" y="193.14" transform="matrix(0.2167 0.9762 -0.9762 0.2167 313.1398 -3.2003)" fill="#58595B" width="0.5" height="0.8"/>

			<rect x="158.475" y="194.682" transform="matrix(0.2167 0.9762 -0.9762 0.2167 314.7709 -2.1493)" fill="#58595B" width="0.5" height="0.799"/>

			<rect x="158.877" y="195.942" transform="matrix(0.2149 0.9766 -0.9766 0.2149 316.693 -1.2552)" fill="#58595B" width="0.5" height="0.8"/>

			<rect x="158.613" y="197.156" transform="matrix(0.2149 0.9766 -0.9766 0.2149 318.2081 0.3883)" fill="#58595B" width="0.5" height="1.9"/>

			<rect x="159.523" y="198.914" transform="matrix(0.2149 0.9766 -0.9766 0.2149 320.1025 0.4479)" fill="#58595B" width="0.5" height="0.8"/>

			<rect x="159.768" y="200.329" transform="matrix(0.2167 0.9762 -0.9762 0.2167 321.2964 1.0107)" fill="#58595B" width="0.5" height="0.8"/>

			<rect x="160.126" y="201.788" transform="matrix(0.2149 0.9766 -0.9766 0.2149 323.3828 2.1146)" fill="#58595B" width="0.5" height="0.8"/>

			<rect x="160.477" y="203.241" transform="matrix(0.2149 0.9766 -0.9766 0.2149 325.0773 2.9131)" fill="#58595B" width="0.5" height="0.8"/>

			<rect x="160.329" y="204.273" transform="matrix(0.2149 0.9766 -0.9766 0.2149 326.5065 4.2992)" fill="#58595B" width="0.5" height="1.9"/>

			<rect x="161.133" y="206.133" transform="matrix(0.2167 0.9762 -0.9762 0.2167 328.0311 4.2243)" fill="#58595B" width="0.5" height="0.799"/>

			<rect x="161.34" y="207.533" transform="matrix(0.2167 0.9762 -0.9762 0.2167 329.56 5.1196)" fill="#58595B" width="0.5" height="0.8"/>

			<rect x="161.824" y="209.057" transform="matrix(0.2149 0.9766 -0.9766 0.2149 331.8164 6.164)" fill="#58595B" width="0.5" height="0.8"/>

			<rect x="161.994" y="210.563" transform="matrix(0.2167 0.9762 -0.9762 0.2167 333.0307 6.8544)" fill="#58595B" width="0.5" height="0.8"/>

			<rect x="161.839" y="211.461" transform="matrix(0.2167 0.9762 -0.9762 0.2167 334.3233 8.1399)" fill="#58595B" width="0.5" height="1.9"/>

			<rect x="162.636" y="213.465" transform="matrix(0.213 0.9771 -0.9771 0.213 337.1484 9.1644)" fill="#58595B" width="0.5" height="0.8"/>

			<rect x="163.031" y="214.741" transform="matrix(0.2126 0.9771 -0.9771 0.2126 338.7916 9.8549)" fill="#58595B" width="0.501" height="0.8"/>

			<rect x="163.285" y="216.291" transform="matrix(0.2167 0.9762 -0.9762 0.2167 339.6337 10.0798)" fill="#58595B" width="0.5" height="0.799"/>

			<rect x="163.624" y="217.725" transform="matrix(0.2149 0.9766 -0.9766 0.2149 341.6945 11.2114)" fill="#58595B" width="0.5" height="0.8"/>

			<rect x="163.466" y="218.732" transform="matrix(0.2149 0.9766 -0.9766 0.2149 343.0902 12.5885)" fill="#58595B" width="0.5" height="1.899"/>

			<rect x="164.25" y="220.575" transform="matrix(0.2149 0.9766 -0.9766 0.2149 344.9691 12.8374)" fill="#58595B" width="0.5" height="0.8"/>

			<rect x="164.638" y="222.091" transform="matrix(0.2167 0.9762 -0.9762 0.2167 346.3564 13.3026)" fill="#58595B" width="0.5" height="0.8"/>

			<rect x="164.835" y="223.565" transform="matrix(0.2167 0.9762 -0.9762 0.2167 347.9487 14.2643)" fill="#58595B" width="0.5" height="0.799"/>

			<rect x="165.298" y="224.897" transform="matrix(0.2149 0.9766 -0.9766 0.2149 350.0131 15.2076)" fill="#58595B" width="0.5" height="0.8"/>

			<rect x="165.061" y="225.929" transform="matrix(0.2149 0.9766 -0.9766 0.2149 351.3723 16.6818)" fill="#58595B" width="0.5" height="1.9"/>

			<rect x="154.689" y="183.721" transform="matrix(0.9765 -0.2157 0.2157 0.9765 -40.7868 38.5832)" fill="#F0C100" width="3.4" height="44.901"/>
	</g>
	<g id="pencilred">
		<g>
			<path fill="#F1F2F2" d="M167.3,217.4l-0.4,3.1c-0.1,0.7,0.101,1.2,0.5,1.3l1.801,0.2c0.399,0.1,0.699-0.4,0.8-1.1l0.399-3.101
				L167.3,217.4z"/>
			<g>

					<rect x="168.9" y="195.807" transform="matrix(-0.9907 -0.1364 0.1364 -0.9907 311.1829 433.7361)" fill="#ED6F5D" width="3.1" height="20.802"/>

					<rect x="170.3" y="195.908" transform="matrix(-0.9906 -0.1367 0.1367 -0.9906 312.3876 434.0717)" fill="#E94B35" width="1.6" height="20.801"/>
			</g>
			<polygon fill="#D1D3D4" points="167.1,217.9 170.4,218.4 170.5,216.6 170.6,216.3 167.5,215.9 167.4,216.2 			"/>

				<rect x="167.1" y="216.407" transform="matrix(-0.9907 -0.1361 0.1361 -0.9907 306.4315 455.8661)" fill="#5C6D84" width="3.401" height="2.1"/>
			<polygon fill="#F1F2F2" points="172.5,191 173.4,195.9 170.3,195.5 			"/>
			<polygon fill="#414042" points="172.5,191 172,191.9 172.7,192 			"/>
		</g>
	</g>
	<g id="pencilblack">
		<g>
			<path fill="#F1F2F2" d="M167.1,218.4l0.3,3.199c0.101,0.7,0.4,1.2,0.801,1.101l1.8-0.2c0.399,0,0.6-0.6,0.6-1.3l-0.3-3.2
				L167.1,218.4z"/>
			<g>

					<rect x="166.103" y="196.302" transform="matrix(-0.9962 0.087 -0.087 -0.9962 352.6451 398.0429)" fill="#6A707D" width="3.1" height="20.8"/>

					<rect x="167.609" y="196.311" transform="matrix(-0.9963 0.0861 -0.0861 -0.9963 353.9848 398.1597)" fill="#454C5D" width="1.6" height="20.8"/>
			</g>
			<polygon fill="#D1D3D4" points="167.1,219 170.4,218.7 170.1,216.9 170.1,216.6 167,216.9 167,217.1 			"/>

				<rect x="166.906" y="217.008" transform="matrix(-0.9962 0.0873 -0.0873 -0.9962 355.609 420.559)" fill="#5C6D84" width="3.4" height="2.1"/>
			<polygon fill="#F1F2F2" points="166.3,191.4 168.3,196.1 165.2,196.4 			"/>
			<polygon fill="#414042" points="166.3,191.4 166.1,192.4 166.7,192.4 			"/>
		</g>
	</g>
	<g id="cup">
		<polygon fill="#F1F2F2" points="169.9,234 158.2,234 154.5,205.5 173.5,205.5 		"/>
		<polygon fill="#E6E7E8" points="173.5,205.5 154.5,205.5 156.2,218.9 173.1,208.8 		"/>
		<rect x="153.2" y="205.5" fill="#F1F2F2" width="21.199" height="3.1"/>
	</g>
</g>
<g id="lamp">
	<g id="lampbase">
		<g id="lamparm1">
			<g id="lamparm2">
				<polygon id="_x3C_Path_x3E__1_" fill="#FFFFFF" points="93.7,180.7 90.8,177.9 121.2,148.4 124.6,150.2 				"/>
				<g id="lampshade">
					<path id="lampbulb" fill="#FFFFFF" d="M143,165.8c-0.2,3.4-3.101,5.9-6.5,5.7c-3.4-0.2-5.9-3.1-5.7-6.5s3.1-5.9,6.5-5.7
						S143.2,162.5,143,165.8z"/>
					<polygon fill="#454C5D" points="151.4,151.3 120.9,178.1 120.8,152.6 129.6,147.9 					"/>
					<polygon fill="#171F34" points="134,148.7 121,160.4 112,143 117.6,138 					"/>
				</g>
			</g>
			<path id="_x3C_Path_x3E_" fill="#FFFFFF" d="M119.3,207.3l-28.6-27.7l2.899-3.1l30.9,30.9L119.3,207.3z"/>
			<path fill="#171F34" d="M98.2,179.6c0,2.601-2.101,4.801-4.801,4.801c-2.6,0-4.8-2.101-4.8-4.801c0-2.6,2.101-4.8,4.8-4.8
				C96,174.8,98.2,176.9,98.2,179.6z"/>
			<path fill="#FFFFFF" d="M96.3,179.6c0,1.601-1.3,2.801-2.8,2.801c-1.601,0-2.8-1.301-2.8-2.801c0-1.6,1.3-2.8,2.8-2.8
				C95,176.7,96.3,178,96.3,179.6z"/>
		</g>
		<path fill="#FFFFFF" d="M128.8,209.9c0,0.3-0.2,0.5-0.5,0.5h-0.6c-0.301,0-0.5-0.2-0.5-0.5V204.8c0-0.3,0.199-0.5,0.5-0.5h0.6
			c0.3,0,0.5,0.2,0.5,0.5V209.9z"/>
		<path fill="#171F34" d="M139,212.7c0-2.9-7.4-5.3-16.601-5.3c-9.199,0-16.6,2.399-16.6,5.3H139z"/>
		<rect x="101" y="212.7" fill="#FFFFFF" width="43.2" height="3.3"/>
	</g>
</g>
<g id="bookshelf">
	<rect id="book6" x="401.1" y="79.2" fill="#353C4F" width="9.5" height="37.399"/>
	<rect id="book5" x="394.4" y="86.8" fill="#F17046" width="5.4" height="29.9"/>
	<rect id="book3" x="377.9" y="82.1" fill="#ECF0F1" width="6.4" height="34.6"/>
	<g id="leaningbook">

			<rect x="326.506" y="79.202" transform="matrix(1 0.0057 -0.0057 1 0.5588 -1.8713)" fill="#F17046" width="9.5" height="37.401"/>
		<rect x="329.106" y="90.302" transform="matrix(1 0.0059 -0.0059 1 0.6051 -1.9383)" fill="#ECF0F1" width="4" height="24.001"/>
		<circle fill="#ECF0F1" cx="331.1" cy="86.9" r="2.7"/>
	</g>
	<g id="book4">
		<rect x="384.6" y="79.2" fill="#F0C100" width="9.5" height="37.399"/>
		<rect x="386.6" y="82.2" fill="#F17046" width="5.4" height="5.4"/>
		<rect x="386.6" y="90.7" fill="#F17046" width="5.4" height="17.2"/>
		<rect x="386.6" y="110" fill="#F17046" width="5.4" height="5.4"/>
	</g>
	<g id="book1">
		<rect x="358.4" y="79.2" fill="#353C4F" width="9.5" height="37.399"/>
		<rect x="360.4" y="81.4" fill="#FFFFFF" width="5.4" height="5.4"/>
		<rect x="360.4" y="89.9" fill="#FFFFFF" width="5.4" height="17.2"/>
		<rect x="360.4" y="109.1" fill="#FFFFFF" width="5.4" height="5.4"/>
	</g>
	<g id="book2">
		<rect x="368" y="79.2" fill="#F0C100" width="9.5" height="37.399"/>
		<rect x="368" y="86.8" fill="#FFFFFF" width="9.5" height="1.9"/>
		<rect x="368" y="107.1" fill="#FFFFFF" width="9.5" height="1.9"/>
	</g>
	<rect id="shelfright" x="323" y="118.4" fill="#F1F2F2" width="5.2" height="14.899"/>
	<rect id="shelfleft" x="409.3" y="118.9" fill="#F1F2F2" width="5.2" height="14.899"/>
	<g id="shelftop">
		<rect x="312.7" y="121" fill="#939598" width="113.3" height="2.4"/>
		<rect x="312.7" y="116.6" fill="#F1F2F2" width="113.3" height="4.5"/>
	</g>
</g>
<g id="desk">
	<rect id="deskleft" x="90.4" y="233.7" fill="#FFFFFF" width="24.4" height="16.3"/>
	<rect id="deskright" x="319.4" y="233.7" fill="#FFFFFF" width="97.601" height="16.3"/>
	<g id="desktop1">
		<rect id="deskshadow" x="90.4" y="228" fill="#454C5D" fill-opacity="0.3" width="326.601" height="5"/>
		<rect id="_x3C_Path_x3E__2_" x="79.8" y="216" fill="#FFFFFF" width="346.3" height="18"/>
	</g>
</g>
<g id="bookondesk">
	<polygon fill="#FFFFFF" points="217.8,204.2 216.1,205.4 178.7,205.4 178.7,196.2 215.8,196.2 217.8,198.5 	"/>
	<g>
		<path fill="#5C6D84" d="M214.6,206.2h-37.7v-1.3h37.7c1.601,0,2.9-1.301,2.9-2.9v-2.2c0-1.6-1.3-2.899-2.9-2.899h-37.7V195.6h37.7
			c2.3,0,4.2,1.9,4.2,4.2v2.2C218.8,204.3,216.9,206.2,214.6,206.2z"/>
	</g>
	<polygon id="bookmark" fill="#F17046" points="191.1,208 188.2,206 185.4,208 185.4,200.4 191.1,200.4 	"/>
</g>
</svg>
