<?xml version="1.0" encoding="utf-8"?>
<!-- Generator: Adobe Illustrator 16.0.0, SVG Export Plug-In . SVG Version: 6.00 Build 0)  -->
<!DOCTYPE svg PUBLIC "-//W3C//DTD SVG 1.1//EN" "http://www.w3.org/Graphics/SVG/1.1/DTD/svg11.dtd">
<svg version="1.1" id="Calque_1" xmlns="http://www.w3.org/2000/svg" xmlns:xlink="http://www.w3.org/1999/xlink" x="0px" y="0px"
	 width="110px" height="110px" viewBox="0 0 110 110" enable-background="new 0 0 110 110" xml:space="preserve">
<g>
	<circle stroke="#1F1E21" stroke-width="0.4729" cx="54.69" cy="52.92" r="51.83"/>
	<path fill="#FFFFFF" stroke="#FFFFFF" stroke-width="0.4729" d="M71.478,36.646c0-8.479-0.832-16.886-6.857-20.965
		c-2.347-1.805-5.283-2.721-8.726-2.721c-9.31,0-15.326,8.666-15.326,22.079c0,4.977,1.114,9.143,3.402,12.72v39.541
		c-1.979-0.322-3.452-1.651-4.91-4.36c-0.087-0.163-0.258-0.256-0.446-0.249c-0.185,0.011-0.345,0.129-0.411,0.302
		c-0.063,0.164-1.522,4.044,0.486,7.148c1.329,2.053,3.836,3.237,7.451,3.528c0.182,0.027,0.349,0.037,0.483,0.037h0.035
		c0.009,0.001,0.017,0.001,0.026,0.002c0.009,0.001,0.017,0.001,0.026,0.001c0.005,0,0.009-0.003,0.014-0.003h8.998
		c10.559,0,15.914-7.278,15.914-21.637L71.478,36.646z M58.514,87.536c-0.849,0.188-1.788,0.284-2.792,0.284l-6.538-0.134V53.517
		c1.716,1.333,3.404,2.223,4.792,2.884l4.689,2.67c1.112,0.61,2.209,1.456,3.352,2.586c2.517,2.743,3.795,6.434,3.795,10.97
		C65.813,80.896,63.221,86.188,58.514,87.536z M58.647,52.132c-0.256-0.138-0.492-0.265-0.733-0.399l-1.61-0.836
		c-2.696-1.282-4.821-2.83-6.512-4.751c-2.531-2.757-3.814-6.495-3.814-11.107c0-9.777,3.893-16.095,9.917-16.095
		c0.611,0,1.206,0.042,1.732,0.12c5.58,0.99,8.216,6.761,8.058,17.669l0.147,20.662C63.316,54.649,60.398,53.076,58.647,52.132z"/>
	<rect id="_x3C_Tranche_x3E_" x="-12.461" y="-13.54" fill="none" width="133.356" height="132.411"/>
</g>
</svg>
